<mxfile host="Electron" agent="Mozilla/5.0 (Windows NT 10.0; Win64; x64) AppleWebKit/537.36 (KHTML, like Gecko) draw.io/25.0.2 Chrome/128.0.6613.186 Electron/32.2.5 Safari/537.36" version="25.0.2">
  <diagram name="Page-1" id="Bje_hQ4m6R2AkW6DR9PT">
    <mxGraphModel dx="8462" dy="3239" grid="1" gridSize="10" guides="1" tooltips="1" connect="1" arrows="1" fold="1" page="1" pageScale="1" pageWidth="827" pageHeight="1169" math="0" shadow="0">
      <root>
        <mxCell id="0" />
        <mxCell id="1" parent="0" />
        <mxCell id="QvkCXpr15zVtPhJupILJ-17" value="" style="group" parent="1" vertex="1" connectable="0">
          <mxGeometry x="510" y="520" width="270" height="160" as="geometry" />
        </mxCell>
        <mxCell id="QvkCXpr15zVtPhJupILJ-18" value="" style="endArrow=none;html=1;rounded=0;strokeWidth=2;" parent="QvkCXpr15zVtPhJupILJ-17" edge="1">
          <mxGeometry width="50" height="50" relative="1" as="geometry">
            <mxPoint x="9.710000000000036" y="160" as="sourcePoint" />
            <mxPoint x="9.710000000000036" as="targetPoint" />
          </mxGeometry>
        </mxCell>
        <mxCell id="QvkCXpr15zVtPhJupILJ-19" value="" style="endArrow=none;html=1;rounded=0;strokeWidth=2;" parent="QvkCXpr15zVtPhJupILJ-17" edge="1">
          <mxGeometry width="50" height="50" relative="1" as="geometry">
            <mxPoint y="80" as="sourcePoint" />
            <mxPoint x="20" y="80" as="targetPoint" />
          </mxGeometry>
        </mxCell>
        <mxCell id="QvkCXpr15zVtPhJupILJ-20" value="&lt;div&gt;&lt;span style=&quot;font-size: 18px; text-align: center;&quot;&gt;flag_page_change == 0&lt;/span&gt;&lt;span style=&quot;font-size: 18px;&quot;&gt;&lt;br&gt;&lt;/span&gt;&lt;/div&gt;&lt;span style=&quot;font-size: 18px;&quot;&gt;time_IRQ_acquisition ==1&lt;/span&gt;" style="text;html=1;align=left;verticalAlign=middle;whiteSpace=wrap;rounded=0;" parent="QvkCXpr15zVtPhJupILJ-17" vertex="1">
          <mxGeometry x="20" y="40" width="250" height="80" as="geometry" />
        </mxCell>
        <mxCell id="QvkCXpr15zVtPhJupILJ-49" value="" style="group" parent="1" vertex="1" connectable="0">
          <mxGeometry x="480" y="680" width="120" height="80" as="geometry" />
        </mxCell>
        <mxCell id="QvkCXpr15zVtPhJupILJ-50" value="" style="whiteSpace=wrap;html=1;aspect=fixed;fillColor=none;" parent="QvkCXpr15zVtPhJupILJ-49" vertex="1">
          <mxGeometry width="80" height="80" as="geometry" />
        </mxCell>
        <mxCell id="QvkCXpr15zVtPhJupILJ-51" value="&lt;font style=&quot;font-size: 29px;&quot;&gt;M0&lt;/font&gt;" style="text;html=1;align=center;verticalAlign=middle;whiteSpace=wrap;rounded=0;" parent="QvkCXpr15zVtPhJupILJ-49" vertex="1">
          <mxGeometry width="80" height="80" as="geometry" />
        </mxCell>
        <mxCell id="QvkCXpr15zVtPhJupILJ-52" style="edgeStyle=orthogonalEdgeStyle;rounded=0;orthogonalLoop=1;jettySize=auto;html=1;exitX=0;exitY=0.25;exitDx=0;exitDy=0;entryX=1;entryY=0.25;entryDx=0;entryDy=0;endArrow=none;endFill=0;" parent="QvkCXpr15zVtPhJupILJ-49" source="QvkCXpr15zVtPhJupILJ-51" target="QvkCXpr15zVtPhJupILJ-51" edge="1">
          <mxGeometry relative="1" as="geometry">
            <Array as="points">
              <mxPoint x="40" y="20" />
              <mxPoint x="40" y="20" />
            </Array>
          </mxGeometry>
        </mxCell>
        <mxCell id="QvkCXpr15zVtPhJupILJ-53" style="edgeStyle=orthogonalEdgeStyle;rounded=0;orthogonalLoop=1;jettySize=auto;html=1;exitX=0;exitY=0.75;exitDx=0;exitDy=0;entryX=1;entryY=0.75;entryDx=0;entryDy=0;endArrow=none;endFill=0;" parent="QvkCXpr15zVtPhJupILJ-49" source="QvkCXpr15zVtPhJupILJ-51" target="QvkCXpr15zVtPhJupILJ-51" edge="1">
          <mxGeometry relative="1" as="geometry">
            <Array as="points">
              <mxPoint x="50" y="60" />
              <mxPoint x="50" y="60" />
            </Array>
          </mxGeometry>
        </mxCell>
        <mxCell id="QvkCXpr15zVtPhJupILJ-54" value="" style="group" parent="1" vertex="1" connectable="0">
          <mxGeometry x="510" y="760" width="130" height="80" as="geometry" />
        </mxCell>
        <mxCell id="QvkCXpr15zVtPhJupILJ-55" value="" style="endArrow=none;html=1;rounded=0;strokeWidth=2;" parent="QvkCXpr15zVtPhJupILJ-54" edge="1">
          <mxGeometry width="50" height="50" relative="1" as="geometry">
            <mxPoint x="9.710000000000036" y="80" as="sourcePoint" />
            <mxPoint x="9.710000000000036" as="targetPoint" />
          </mxGeometry>
        </mxCell>
        <mxCell id="QvkCXpr15zVtPhJupILJ-56" value="" style="endArrow=none;html=1;rounded=0;strokeWidth=2;" parent="QvkCXpr15zVtPhJupILJ-54" edge="1">
          <mxGeometry width="50" height="50" relative="1" as="geometry">
            <mxPoint y="40" as="sourcePoint" />
            <mxPoint x="20" y="40" as="targetPoint" />
          </mxGeometry>
        </mxCell>
        <mxCell id="QvkCXpr15zVtPhJupILJ-57" value="&lt;font style=&quot;font-size: 18px;&quot;&gt;1&lt;/font&gt;" style="text;html=1;align=left;verticalAlign=middle;whiteSpace=wrap;rounded=0;" parent="QvkCXpr15zVtPhJupILJ-54" vertex="1">
          <mxGeometry x="20" y="20" width="110" height="40" as="geometry" />
        </mxCell>
        <mxCell id="QvkCXpr15zVtPhJupILJ-58" value="&lt;span style=&quot;font-size: 18px; text-align: left;&quot;&gt;acquisition des donner des capteur&lt;/span&gt;" style="text;html=1;align=center;verticalAlign=middle;whiteSpace=wrap;rounded=0;" parent="1" vertex="1">
          <mxGeometry x="570" y="682.5" width="180" height="75" as="geometry" />
        </mxCell>
        <mxCell id="QvkCXpr15zVtPhJupILJ-59" value="&lt;span style=&quot;font-size: 18px; text-align: left;&quot;&gt;acquisition des donner des capteur&lt;/span&gt;" style="text;html=1;align=center;verticalAlign=middle;whiteSpace=wrap;rounded=0;" parent="1" vertex="1">
          <mxGeometry x="-3400" y="110" width="180" height="75" as="geometry" />
        </mxCell>
        <mxCell id="QvkCXpr15zVtPhJupILJ-60" value="" style="whiteSpace=wrap;html=1;aspect=fixed;fillColor=none;" parent="1" vertex="1">
          <mxGeometry x="-3350" y="185" width="80" height="80" as="geometry" />
        </mxCell>
        <mxCell id="QvkCXpr15zVtPhJupILJ-61" value="&lt;font style=&quot;font-size: 29px;&quot;&gt;E0&lt;/font&gt;" style="text;html=1;align=center;verticalAlign=middle;whiteSpace=wrap;rounded=0;" parent="1" vertex="1">
          <mxGeometry x="-3350" y="185" width="80" height="80" as="geometry" />
        </mxCell>
        <mxCell id="QvkCXpr15zVtPhJupILJ-62" style="edgeStyle=orthogonalEdgeStyle;rounded=0;orthogonalLoop=1;jettySize=auto;html=1;exitX=0;exitY=0.25;exitDx=0;exitDy=0;entryX=1;entryY=0.25;entryDx=0;entryDy=0;endArrow=none;endFill=0;" parent="1" source="QvkCXpr15zVtPhJupILJ-61" target="QvkCXpr15zVtPhJupILJ-61" edge="1">
          <mxGeometry relative="1" as="geometry">
            <Array as="points">
              <mxPoint x="-3310" y="205" />
              <mxPoint x="-3310" y="205" />
            </Array>
          </mxGeometry>
        </mxCell>
        <mxCell id="QvkCXpr15zVtPhJupILJ-63" style="edgeStyle=orthogonalEdgeStyle;rounded=0;orthogonalLoop=1;jettySize=auto;html=1;exitX=0;exitY=0.75;exitDx=0;exitDy=0;entryX=1;entryY=0.75;entryDx=0;entryDy=0;endArrow=none;endFill=0;" parent="1" source="QvkCXpr15zVtPhJupILJ-61" target="QvkCXpr15zVtPhJupILJ-61" edge="1">
          <mxGeometry relative="1" as="geometry">
            <Array as="points">
              <mxPoint x="-3300" y="245" />
              <mxPoint x="-3300" y="245" />
            </Array>
          </mxGeometry>
        </mxCell>
        <mxCell id="QvkCXpr15zVtPhJupILJ-64" value="" style="whiteSpace=wrap;html=1;aspect=fixed;fillColor=none;" parent="1" vertex="1">
          <mxGeometry x="-3360" y="660" width="80" height="80" as="geometry" />
        </mxCell>
        <mxCell id="QvkCXpr15zVtPhJupILJ-65" value="&lt;font style=&quot;font-size: 29px;&quot;&gt;S0&lt;/font&gt;" style="text;html=1;align=center;verticalAlign=middle;whiteSpace=wrap;rounded=0;" parent="1" vertex="1">
          <mxGeometry x="-3360" y="660" width="80" height="80" as="geometry" />
        </mxCell>
        <mxCell id="QvkCXpr15zVtPhJupILJ-66" style="edgeStyle=orthogonalEdgeStyle;rounded=0;orthogonalLoop=1;jettySize=auto;html=1;exitX=0;exitY=0.25;exitDx=0;exitDy=0;entryX=1;entryY=0.25;entryDx=0;entryDy=0;endArrow=none;endFill=0;" parent="1" source="QvkCXpr15zVtPhJupILJ-65" target="QvkCXpr15zVtPhJupILJ-65" edge="1">
          <mxGeometry relative="1" as="geometry">
            <Array as="points">
              <mxPoint x="-3320" y="680" />
              <mxPoint x="-3320" y="680" />
            </Array>
          </mxGeometry>
        </mxCell>
        <mxCell id="QvkCXpr15zVtPhJupILJ-67" style="edgeStyle=orthogonalEdgeStyle;rounded=0;orthogonalLoop=1;jettySize=auto;html=1;exitX=0;exitY=0.75;exitDx=0;exitDy=0;entryX=1;entryY=0.75;entryDx=0;entryDy=0;endArrow=none;endFill=0;" parent="1" source="QvkCXpr15zVtPhJupILJ-65" target="QvkCXpr15zVtPhJupILJ-65" edge="1">
          <mxGeometry relative="1" as="geometry">
            <Array as="points">
              <mxPoint x="-3310" y="720" />
              <mxPoint x="-3310" y="720" />
            </Array>
          </mxGeometry>
        </mxCell>
        <mxCell id="QvkCXpr15zVtPhJupILJ-84" value="" style="group" parent="1" vertex="1" connectable="0">
          <mxGeometry x="830" y="520" width="260" height="160" as="geometry" />
        </mxCell>
        <mxCell id="QvkCXpr15zVtPhJupILJ-85" value="" style="endArrow=none;html=1;rounded=0;strokeWidth=2;" parent="QvkCXpr15zVtPhJupILJ-84" edge="1">
          <mxGeometry width="50" height="50" relative="1" as="geometry">
            <mxPoint x="9.710000000000036" y="160" as="sourcePoint" />
            <mxPoint x="9.710000000000036" as="targetPoint" />
          </mxGeometry>
        </mxCell>
        <mxCell id="QvkCXpr15zVtPhJupILJ-86" value="" style="endArrow=none;html=1;rounded=0;strokeWidth=2;" parent="QvkCXpr15zVtPhJupILJ-84" edge="1">
          <mxGeometry width="50" height="50" relative="1" as="geometry">
            <mxPoint y="80" as="sourcePoint" />
            <mxPoint x="20" y="80" as="targetPoint" />
          </mxGeometry>
        </mxCell>
        <mxCell id="QvkCXpr15zVtPhJupILJ-87" value="&lt;div&gt;&lt;font style=&quot;font-size: 18px;&quot;&gt;&lt;span style=&quot;text-align: center;&quot;&gt;flag_page_change == 0&lt;/span&gt;&lt;br&gt;&lt;/font&gt;&lt;/div&gt;&lt;font style=&quot;font-size: 18px;&quot;&gt;time_IRQ_acquisition&amp;nbsp;== 0&lt;/font&gt;&lt;div style=&quot;text-align: center;&quot;&gt;&lt;font style=&quot;font-size: 18px;&quot;&gt;flag_update == 1&lt;/font&gt;&lt;/div&gt;" style="text;html=1;align=left;verticalAlign=middle;whiteSpace=wrap;rounded=0;" parent="QvkCXpr15zVtPhJupILJ-84" vertex="1">
          <mxGeometry x="20" y="40" width="240" height="80" as="geometry" />
        </mxCell>
        <mxCell id="QvkCXpr15zVtPhJupILJ-94" value="" style="group" parent="1" vertex="1" connectable="0">
          <mxGeometry x="800" y="680" width="160" height="160" as="geometry" />
        </mxCell>
        <mxCell id="QvkCXpr15zVtPhJupILJ-95" value="" style="whiteSpace=wrap;html=1;aspect=fixed;fillColor=none;" parent="QvkCXpr15zVtPhJupILJ-94" vertex="1">
          <mxGeometry width="80" height="80" as="geometry" />
        </mxCell>
        <mxCell id="QvkCXpr15zVtPhJupILJ-96" value="&lt;font style=&quot;font-size: 29px;&quot;&gt;0&lt;/font&gt;" style="text;html=1;align=center;verticalAlign=middle;whiteSpace=wrap;rounded=0;" parent="QvkCXpr15zVtPhJupILJ-94" vertex="1">
          <mxGeometry width="80" height="80" as="geometry" />
        </mxCell>
        <mxCell id="QvkCXpr15zVtPhJupILJ-97" value="" style="endArrow=none;html=1;rounded=0;exitX=1;exitY=0.5;exitDx=0;exitDy=0;strokeWidth=2;" parent="QvkCXpr15zVtPhJupILJ-94" source="QvkCXpr15zVtPhJupILJ-96" edge="1">
          <mxGeometry width="50" height="50" relative="1" as="geometry">
            <mxPoint x="110" y="60" as="sourcePoint" />
            <mxPoint x="120" y="40" as="targetPoint" />
          </mxGeometry>
        </mxCell>
        <mxCell id="QvkCXpr15zVtPhJupILJ-102" value="" style="group" parent="QvkCXpr15zVtPhJupILJ-94" vertex="1" connectable="0">
          <mxGeometry x="30" y="80" width="130" height="80" as="geometry" />
        </mxCell>
        <mxCell id="QvkCXpr15zVtPhJupILJ-103" value="" style="endArrow=none;html=1;rounded=0;strokeWidth=2;" parent="QvkCXpr15zVtPhJupILJ-102" edge="1">
          <mxGeometry width="50" height="50" relative="1" as="geometry">
            <mxPoint x="9.710000000000036" y="80" as="sourcePoint" />
            <mxPoint x="9.710000000000036" as="targetPoint" />
          </mxGeometry>
        </mxCell>
        <mxCell id="QvkCXpr15zVtPhJupILJ-104" value="" style="endArrow=none;html=1;rounded=0;strokeWidth=2;" parent="QvkCXpr15zVtPhJupILJ-102" edge="1">
          <mxGeometry width="50" height="50" relative="1" as="geometry">
            <mxPoint y="40" as="sourcePoint" />
            <mxPoint x="20" y="40" as="targetPoint" />
          </mxGeometry>
        </mxCell>
        <mxCell id="QvkCXpr15zVtPhJupILJ-105" value="&lt;font style=&quot;font-size: 18px;&quot;&gt;1&lt;/font&gt;" style="text;html=1;align=left;verticalAlign=middle;whiteSpace=wrap;rounded=0;" parent="QvkCXpr15zVtPhJupILJ-102" vertex="1">
          <mxGeometry x="20" y="20" width="110" height="40" as="geometry" />
        </mxCell>
        <mxCell id="QvkCXpr15zVtPhJupILJ-98" value="" style="group" parent="1" vertex="1" connectable="0">
          <mxGeometry x="920" y="670" width="240" height="100" as="geometry" />
        </mxCell>
        <mxCell id="QvkCXpr15zVtPhJupILJ-99" value="&lt;span style=&quot;font-size: 18px;&quot;&gt;update_affichage(page)&lt;br&gt;&lt;/span&gt;&lt;span style=&quot;font-size: 18px;&quot;&gt;flag_update = 0&lt;/span&gt;&lt;span style=&quot;font-size: 18px;&quot;&gt;&lt;br&gt;&lt;/span&gt;" style="rounded=0;whiteSpace=wrap;html=1;fillColor=none;" parent="QvkCXpr15zVtPhJupILJ-98" vertex="1">
          <mxGeometry y="20" width="240" height="80" as="geometry" />
        </mxCell>
        <mxCell id="QvkCXpr15zVtPhJupILJ-100" value="" style="endArrow=block;html=1;rounded=0;exitX=0;exitY=1;exitDx=0;exitDy=0;endFill=1;strokeWidth=2;" parent="QvkCXpr15zVtPhJupILJ-98" source="QvkCXpr15zVtPhJupILJ-99" edge="1">
          <mxGeometry width="50" height="50" relative="1" as="geometry">
            <mxPoint x="-131.53846153846155" y="85" as="sourcePoint" />
            <mxPoint as="targetPoint" />
          </mxGeometry>
        </mxCell>
        <mxCell id="QvkCXpr15zVtPhJupILJ-106" value="" style="group" parent="1" vertex="1" connectable="0">
          <mxGeometry x="101" y="682.5" width="120" height="80" as="geometry" />
        </mxCell>
        <mxCell id="QvkCXpr15zVtPhJupILJ-107" value="" style="whiteSpace=wrap;html=1;aspect=fixed;fillColor=none;" parent="QvkCXpr15zVtPhJupILJ-106" vertex="1">
          <mxGeometry width="80" height="80" as="geometry" />
        </mxCell>
        <mxCell id="QvkCXpr15zVtPhJupILJ-108" value="&lt;font style=&quot;font-size: 29px;&quot;&gt;0&lt;/font&gt;" style="text;html=1;align=center;verticalAlign=middle;whiteSpace=wrap;rounded=0;" parent="QvkCXpr15zVtPhJupILJ-106" vertex="1">
          <mxGeometry width="80" height="80" as="geometry" />
        </mxCell>
        <mxCell id="QvkCXpr15zVtPhJupILJ-109" value="" style="endArrow=none;html=1;rounded=0;exitX=1;exitY=0.5;exitDx=0;exitDy=0;strokeWidth=2;" parent="QvkCXpr15zVtPhJupILJ-106" source="QvkCXpr15zVtPhJupILJ-108" edge="1">
          <mxGeometry width="50" height="50" relative="1" as="geometry">
            <mxPoint x="110" y="60" as="sourcePoint" />
            <mxPoint x="120" y="40" as="targetPoint" />
          </mxGeometry>
        </mxCell>
        <mxCell id="QvkCXpr15zVtPhJupILJ-110" value="" style="group" parent="1" vertex="1" connectable="0">
          <mxGeometry x="124" y="522.5" width="270" height="160" as="geometry" />
        </mxCell>
        <mxCell id="QvkCXpr15zVtPhJupILJ-111" value="" style="endArrow=none;html=1;rounded=0;strokeWidth=2;" parent="QvkCXpr15zVtPhJupILJ-110" edge="1">
          <mxGeometry width="50" height="50" relative="1" as="geometry">
            <mxPoint x="15.421764705882413" y="160" as="sourcePoint" />
            <mxPoint x="15.421764705882413" as="targetPoint" />
          </mxGeometry>
        </mxCell>
        <mxCell id="QvkCXpr15zVtPhJupILJ-112" value="" style="endArrow=none;html=1;rounded=0;strokeWidth=2;" parent="QvkCXpr15zVtPhJupILJ-110" edge="1">
          <mxGeometry width="50" height="50" relative="1" as="geometry">
            <mxPoint y="80" as="sourcePoint" />
            <mxPoint x="31.764705882352946" y="80" as="targetPoint" />
          </mxGeometry>
        </mxCell>
        <mxCell id="QvkCXpr15zVtPhJupILJ-113" value="&lt;div style=&quot;text-align: center;&quot;&gt;&lt;font style=&quot;font-size: 18px;&quot;&gt;flag_page_change == 1&lt;/font&gt;&lt;/div&gt;" style="text;html=1;align=left;verticalAlign=middle;whiteSpace=wrap;rounded=0;" parent="QvkCXpr15zVtPhJupILJ-110" vertex="1">
          <mxGeometry x="31.764705882352946" y="40" width="238.2352941176471" height="80" as="geometry" />
        </mxCell>
        <mxCell id="QvkCXpr15zVtPhJupILJ-124" value="" style="group" parent="1" vertex="1" connectable="0">
          <mxGeometry x="224" y="672.5" width="190" height="100" as="geometry" />
        </mxCell>
        <mxCell id="QvkCXpr15zVtPhJupILJ-125" value="&lt;span style=&quot;font-size: 18px;&quot;&gt;affiche(page)&lt;br&gt;&lt;/span&gt;&lt;span style=&quot;font-size: 18px;&quot;&gt;flag_page_change = 0&lt;/span&gt;&lt;span style=&quot;font-size: 18px;&quot;&gt;&lt;br&gt;&lt;/span&gt;" style="rounded=0;whiteSpace=wrap;html=1;fillColor=none;" parent="QvkCXpr15zVtPhJupILJ-124" vertex="1">
          <mxGeometry y="20" width="190" height="80" as="geometry" />
        </mxCell>
        <mxCell id="QvkCXpr15zVtPhJupILJ-126" value="" style="endArrow=block;html=1;rounded=0;exitX=0;exitY=1;exitDx=0;exitDy=0;endFill=1;strokeWidth=2;" parent="QvkCXpr15zVtPhJupILJ-124" source="QvkCXpr15zVtPhJupILJ-125" edge="1">
          <mxGeometry width="50" height="50" relative="1" as="geometry">
            <mxPoint x="-95" y="85" as="sourcePoint" />
            <mxPoint as="targetPoint" />
          </mxGeometry>
        </mxCell>
        <mxCell id="QvkCXpr15zVtPhJupILJ-127" value="" style="group" parent="1" vertex="1" connectable="0">
          <mxGeometry x="124" y="762.5" width="130" height="80" as="geometry" />
        </mxCell>
        <mxCell id="QvkCXpr15zVtPhJupILJ-128" value="" style="endArrow=none;html=1;rounded=0;strokeWidth=2;" parent="QvkCXpr15zVtPhJupILJ-127" edge="1">
          <mxGeometry width="50" height="50" relative="1" as="geometry">
            <mxPoint x="9.710000000000036" y="80" as="sourcePoint" />
            <mxPoint x="9.710000000000036" as="targetPoint" />
          </mxGeometry>
        </mxCell>
        <mxCell id="QvkCXpr15zVtPhJupILJ-129" value="" style="endArrow=none;html=1;rounded=0;strokeWidth=2;" parent="QvkCXpr15zVtPhJupILJ-127" edge="1">
          <mxGeometry width="50" height="50" relative="1" as="geometry">
            <mxPoint y="40" as="sourcePoint" />
            <mxPoint x="20" y="40" as="targetPoint" />
          </mxGeometry>
        </mxCell>
        <mxCell id="QvkCXpr15zVtPhJupILJ-130" value="&lt;font style=&quot;font-size: 18px;&quot;&gt;1&lt;/font&gt;" style="text;html=1;align=left;verticalAlign=middle;whiteSpace=wrap;rounded=0;" parent="QvkCXpr15zVtPhJupILJ-127" vertex="1">
          <mxGeometry x="20" y="20" width="110" height="40" as="geometry" />
        </mxCell>
        <mxCell id="QvkCXpr15zVtPhJupILJ-133" value="" style="group" parent="1" vertex="1" connectable="0">
          <mxGeometry x="1241" y="520" width="270" height="160" as="geometry" />
        </mxCell>
        <mxCell id="QvkCXpr15zVtPhJupILJ-134" value="" style="endArrow=none;html=1;rounded=0;strokeWidth=2;" parent="QvkCXpr15zVtPhJupILJ-133" edge="1">
          <mxGeometry width="50" height="50" relative="1" as="geometry">
            <mxPoint x="13.708235294117701" y="160" as="sourcePoint" />
            <mxPoint x="13.708235294117701" as="targetPoint" />
          </mxGeometry>
        </mxCell>
        <mxCell id="QvkCXpr15zVtPhJupILJ-135" value="" style="endArrow=none;html=1;rounded=0;strokeWidth=2;" parent="QvkCXpr15zVtPhJupILJ-133" edge="1">
          <mxGeometry width="50" height="50" relative="1" as="geometry">
            <mxPoint y="80" as="sourcePoint" />
            <mxPoint x="28.23529411764706" y="80" as="targetPoint" />
          </mxGeometry>
        </mxCell>
        <mxCell id="QvkCXpr15zVtPhJupILJ-136" value="&lt;font style=&quot;font-size: 18px;&quot;&gt;time_IRQ_acquisition&amp;nbsp;== 0&lt;/font&gt;&lt;div style=&quot;text-align: center;&quot;&gt;&lt;font style=&quot;font-size: 18px;&quot;&gt;flag_update == 0&lt;br&gt;flag_page_change == 0&lt;/font&gt;&lt;/div&gt;&lt;div style=&quot;text-align: center;&quot;&gt;&lt;font style=&quot;font-size: 18px;&quot;&gt;&lt;span style=&quot;background-color: initial;&quot;&gt;flag_IRQ_pluie &lt;/span&gt;== 1&lt;/font&gt;&lt;/div&gt;&lt;div style=&quot;text-align: center;&quot;&gt;&lt;font style=&quot;font-size: 18px;&quot;&gt;&lt;span style=&quot;font-size: 15px;&quot;&gt;flag_pluie_verf == 1&lt;/span&gt;&lt;br&gt;&lt;/font&gt;&lt;/div&gt;&lt;div style=&quot;text-align: center;&quot;&gt;&lt;span style=&quot;color: rgba(0, 0, 0, 0); font-family: monospace; font-size: 0px; text-align: start; text-wrap: nowrap;&quot;&gt;%3CmxGraphModel%3E%3Croot%3E%3CmxCell%20id%3D%220%22%2F%3E%3CmxCell%20id%3D%221%22%20parent%3D%220%22%2F%3E%3CmxCell%20id%3D%222%22%20value%3D%22%22%20style%3D%22group%22%20vertex%3D%221%22%20connectable%3D%220%22%20parent%3D%221%22%3E%3CmxGeometry%20x%3D%22850%22%20y%3D%22520%22%20width%3D%22240%22%20height%3D%22160%22%20as%3D%22geometry%22%2F%3E%3C%2FmxCell%3E%3CmxCell%20id%3D%223%22%20value%3D%22%22%20style%3D%22endArrow%3Dnone%3Bhtml%3D1%3Brounded%3D0%3BstrokeWidth%3D2%3B%22%20edge%3D%221%22%20parent%3D%222%22%3E%3CmxGeometry%20width%3D%2250%22%20height%3D%2250%22%20relative%3D%221%22%20as%3D%22geometry%22%3E%3CmxPoint%20x%3D%2213.708235294117701%22%20y%3D%22160%22%20as%3D%22sourcePoint%22%2F%3E%3CmxPoint%20x%3D%2213.708235294117701%22%20as%3D%22targetPoint%22%2F%3E%3C%2FmxGeometry%3E%3C%2FmxCell%3E%3CmxCell%20id%3D%224%22%20value%3D%22%22%20style%3D%22endArrow%3Dnone%3Bhtml%3D1%3Brounded%3D0%3BstrokeWidth%3D2%3B%22%20edge%3D%221%22%20parent%3D%222%22%3E%3CmxGeometry%20width%3D%2250%22%20height%3D%2250%22%20relative%3D%221%22%20as%3D%22geometry%22%3E%3CmxPoint%20y%3D%2280%22%20as%3D%22sourcePoint%22%2F%3E%3CmxPoint%20x%3D%2228.23529411764706%22%20y%3D%2280%22%20as%3D%22targetPoint%22%2F%3E%3C%2FmxGeometry%3E%3C%2FmxCell%3E%3CmxCell%20id%3D%225%22%20value%3D%22%26lt%3Bfont%20style%3D%26quot%3Bfont-size%3A%2018px%3B%26quot%3B%26gt%3Btime_acquisition%20%3D%3D%200%26lt%3B%2Ffont%26gt%3B%26lt%3Bdiv%20style%3D%26quot%3Btext-align%3A%20center%3B%26quot%3B%26gt%3B%26lt%3Bfont%20style%3D%26quot%3Bfont-size%3A%2018px%3B%26quot%3B%26gt%3Bflag_update%20%3D%3D%200%26lt%3Bbr%26gt%3Bflag_page_change%20%3D%3D%201%26lt%3B%2Ffont%26gt%3B%26lt%3B%2Fdiv%26gt%3B%22%20style%3D%22text%3Bhtml%3D1%3Balign%3Dleft%3BverticalAlign%3Dmiddle%3BwhiteSpace%3Dwrap%3Brounded%3D0%3B%22%20vertex%3D%221%22%20parent%3D%222%22%3E%3CmxGeometry%20x%3D%2228.23529411764706%22%20y%3D%2240%22%20width%3D%22211.76470588235298%22%20height%3D%2280%22%20as%3D%22geometry%22%2F%3E%3C%2FmxCell%3E%3C%2Froot%3E%3C%2FmxGraphModel%3Eflag_puie&lt;/span&gt;&lt;br&gt;&lt;/div&gt;" style="text;html=1;align=left;verticalAlign=middle;whiteSpace=wrap;rounded=0;" parent="QvkCXpr15zVtPhJupILJ-133" vertex="1">
          <mxGeometry x="28.24" width="241.76" height="150" as="geometry" />
        </mxCell>
        <mxCell id="QvkCXpr15zVtPhJupILJ-144" value="" style="group" parent="1" vertex="1" connectable="0">
          <mxGeometry x="1220" y="682.5" width="120" height="80" as="geometry" />
        </mxCell>
        <mxCell id="QvkCXpr15zVtPhJupILJ-145" value="" style="whiteSpace=wrap;html=1;aspect=fixed;fillColor=none;" parent="QvkCXpr15zVtPhJupILJ-144" vertex="1">
          <mxGeometry width="80" height="80" as="geometry" />
        </mxCell>
        <mxCell id="QvkCXpr15zVtPhJupILJ-146" value="&lt;font style=&quot;font-size: 29px;&quot;&gt;M0&lt;/font&gt;" style="text;html=1;align=center;verticalAlign=middle;whiteSpace=wrap;rounded=0;" parent="QvkCXpr15zVtPhJupILJ-144" vertex="1">
          <mxGeometry width="80" height="80" as="geometry" />
        </mxCell>
        <mxCell id="QvkCXpr15zVtPhJupILJ-147" style="edgeStyle=orthogonalEdgeStyle;rounded=0;orthogonalLoop=1;jettySize=auto;html=1;exitX=0;exitY=0.25;exitDx=0;exitDy=0;entryX=1;entryY=0.25;entryDx=0;entryDy=0;endArrow=none;endFill=0;" parent="QvkCXpr15zVtPhJupILJ-144" source="QvkCXpr15zVtPhJupILJ-146" target="QvkCXpr15zVtPhJupILJ-146" edge="1">
          <mxGeometry relative="1" as="geometry">
            <Array as="points">
              <mxPoint x="40" y="20" />
              <mxPoint x="40" y="20" />
            </Array>
          </mxGeometry>
        </mxCell>
        <mxCell id="QvkCXpr15zVtPhJupILJ-148" style="edgeStyle=orthogonalEdgeStyle;rounded=0;orthogonalLoop=1;jettySize=auto;html=1;exitX=0;exitY=0.75;exitDx=0;exitDy=0;entryX=1;entryY=0.75;entryDx=0;entryDy=0;endArrow=none;endFill=0;" parent="QvkCXpr15zVtPhJupILJ-144" source="QvkCXpr15zVtPhJupILJ-146" target="QvkCXpr15zVtPhJupILJ-146" edge="1">
          <mxGeometry relative="1" as="geometry">
            <Array as="points">
              <mxPoint x="50" y="60" />
              <mxPoint x="50" y="60" />
            </Array>
          </mxGeometry>
        </mxCell>
        <mxCell id="QvkCXpr15zVtPhJupILJ-149" value="" style="group" parent="1" vertex="1" connectable="0">
          <mxGeometry x="1250" y="762.5" width="130" height="80" as="geometry" />
        </mxCell>
        <mxCell id="QvkCXpr15zVtPhJupILJ-150" value="" style="endArrow=none;html=1;rounded=0;strokeWidth=2;" parent="QvkCXpr15zVtPhJupILJ-149" edge="1">
          <mxGeometry width="50" height="50" relative="1" as="geometry">
            <mxPoint x="9.710000000000036" y="80" as="sourcePoint" />
            <mxPoint x="9.710000000000036" as="targetPoint" />
          </mxGeometry>
        </mxCell>
        <mxCell id="QvkCXpr15zVtPhJupILJ-151" value="" style="endArrow=none;html=1;rounded=0;strokeWidth=2;" parent="QvkCXpr15zVtPhJupILJ-149" edge="1">
          <mxGeometry width="50" height="50" relative="1" as="geometry">
            <mxPoint y="40" as="sourcePoint" />
            <mxPoint x="20" y="40" as="targetPoint" />
          </mxGeometry>
        </mxCell>
        <mxCell id="QvkCXpr15zVtPhJupILJ-152" value="&lt;font style=&quot;font-size: 18px;&quot;&gt;1&lt;/font&gt;" style="text;html=1;align=left;verticalAlign=middle;whiteSpace=wrap;rounded=0;" parent="QvkCXpr15zVtPhJupILJ-149" vertex="1">
          <mxGeometry x="20" y="20" width="110" height="40" as="geometry" />
        </mxCell>
        <mxCell id="QvkCXpr15zVtPhJupILJ-153" value="verfication si pluie" style="text;html=1;align=center;verticalAlign=middle;whiteSpace=wrap;rounded=0;" parent="1" vertex="1">
          <mxGeometry x="1320" y="707.5" width="120" height="30" as="geometry" />
        </mxCell>
        <mxCell id="QvkCXpr15zVtPhJupILJ-171" value="" style="whiteSpace=wrap;html=1;aspect=fixed;fillColor=none;" parent="1" vertex="1">
          <mxGeometry x="-510" y="225" width="80" height="80" as="geometry" />
        </mxCell>
        <mxCell id="QvkCXpr15zVtPhJupILJ-172" value="&lt;font style=&quot;font-size: 29px;&quot;&gt;E0&lt;/font&gt;" style="text;html=1;align=center;verticalAlign=middle;whiteSpace=wrap;rounded=0;" parent="1" vertex="1">
          <mxGeometry x="-510" y="225" width="80" height="80" as="geometry" />
        </mxCell>
        <mxCell id="QvkCXpr15zVtPhJupILJ-173" style="edgeStyle=orthogonalEdgeStyle;rounded=0;orthogonalLoop=1;jettySize=auto;html=1;exitX=0;exitY=0.25;exitDx=0;exitDy=0;entryX=1;entryY=0.25;entryDx=0;entryDy=0;endArrow=none;endFill=0;" parent="1" source="QvkCXpr15zVtPhJupILJ-172" target="QvkCXpr15zVtPhJupILJ-172" edge="1">
          <mxGeometry relative="1" as="geometry">
            <Array as="points">
              <mxPoint x="-470" y="245" />
              <mxPoint x="-470" y="245" />
            </Array>
          </mxGeometry>
        </mxCell>
        <mxCell id="QvkCXpr15zVtPhJupILJ-174" style="edgeStyle=orthogonalEdgeStyle;rounded=0;orthogonalLoop=1;jettySize=auto;html=1;exitX=0;exitY=0.75;exitDx=0;exitDy=0;entryX=1;entryY=0.75;entryDx=0;entryDy=0;endArrow=none;endFill=0;" parent="1" source="QvkCXpr15zVtPhJupILJ-172" target="QvkCXpr15zVtPhJupILJ-172" edge="1">
          <mxGeometry relative="1" as="geometry">
            <Array as="points">
              <mxPoint x="-460" y="285" />
              <mxPoint x="-460" y="285" />
            </Array>
          </mxGeometry>
        </mxCell>
        <mxCell id="QvkCXpr15zVtPhJupILJ-175" value="" style="whiteSpace=wrap;html=1;aspect=fixed;fillColor=none;" parent="1" vertex="1">
          <mxGeometry x="-590" y="920" width="80" height="80" as="geometry" />
        </mxCell>
        <mxCell id="QvkCXpr15zVtPhJupILJ-176" value="&lt;font style=&quot;font-size: 29px;&quot;&gt;S0&lt;/font&gt;" style="text;html=1;align=center;verticalAlign=middle;whiteSpace=wrap;rounded=0;" parent="1" vertex="1">
          <mxGeometry x="-590" y="920" width="80" height="80" as="geometry" />
        </mxCell>
        <mxCell id="QvkCXpr15zVtPhJupILJ-177" style="edgeStyle=orthogonalEdgeStyle;rounded=0;orthogonalLoop=1;jettySize=auto;html=1;exitX=0;exitY=0.25;exitDx=0;exitDy=0;entryX=1;entryY=0.25;entryDx=0;entryDy=0;endArrow=none;endFill=0;" parent="1" source="QvkCXpr15zVtPhJupILJ-176" target="QvkCXpr15zVtPhJupILJ-176" edge="1">
          <mxGeometry relative="1" as="geometry">
            <Array as="points">
              <mxPoint x="-550" y="940" />
              <mxPoint x="-550" y="940" />
            </Array>
          </mxGeometry>
        </mxCell>
        <mxCell id="QvkCXpr15zVtPhJupILJ-178" style="edgeStyle=orthogonalEdgeStyle;rounded=0;orthogonalLoop=1;jettySize=auto;html=1;exitX=0;exitY=0.75;exitDx=0;exitDy=0;entryX=1;entryY=0.75;entryDx=0;entryDy=0;endArrow=none;endFill=0;" parent="1" source="QvkCXpr15zVtPhJupILJ-176" target="QvkCXpr15zVtPhJupILJ-176" edge="1">
          <mxGeometry relative="1" as="geometry">
            <Array as="points">
              <mxPoint x="-540" y="980" />
              <mxPoint x="-540" y="980" />
            </Array>
          </mxGeometry>
        </mxCell>
        <mxCell id="QvkCXpr15zVtPhJupILJ-179" value="" style="group" parent="1" vertex="1" connectable="0">
          <mxGeometry x="-560" y="840" width="130" height="80" as="geometry" />
        </mxCell>
        <mxCell id="QvkCXpr15zVtPhJupILJ-180" value="" style="endArrow=none;html=1;rounded=0;strokeWidth=2;" parent="QvkCXpr15zVtPhJupILJ-179" edge="1">
          <mxGeometry width="50" height="50" relative="1" as="geometry">
            <mxPoint x="9.710000000000036" y="80" as="sourcePoint" />
            <mxPoint x="9.710000000000036" as="targetPoint" />
          </mxGeometry>
        </mxCell>
        <mxCell id="QvkCXpr15zVtPhJupILJ-181" value="" style="endArrow=none;html=1;rounded=0;strokeWidth=2;" parent="QvkCXpr15zVtPhJupILJ-179" edge="1">
          <mxGeometry width="50" height="50" relative="1" as="geometry">
            <mxPoint y="40" as="sourcePoint" />
            <mxPoint x="20" y="40" as="targetPoint" />
          </mxGeometry>
        </mxCell>
        <mxCell id="QvkCXpr15zVtPhJupILJ-182" value="&lt;font style=&quot;font-size: 18px;&quot;&gt;1&lt;/font&gt;" style="text;html=1;align=left;verticalAlign=middle;whiteSpace=wrap;rounded=0;" parent="QvkCXpr15zVtPhJupILJ-179" vertex="1">
          <mxGeometry x="20" y="20" width="110" height="40" as="geometry" />
        </mxCell>
        <mxCell id="QvkCXpr15zVtPhJupILJ-184" value="verfication si pluie" style="text;html=1;align=center;verticalAlign=middle;whiteSpace=wrap;rounded=0;" parent="1" vertex="1">
          <mxGeometry x="-510" y="170" width="120" height="30" as="geometry" />
        </mxCell>
        <mxCell id="QvkCXpr15zVtPhJupILJ-185" value="" style="group" parent="1" vertex="1" connectable="0">
          <mxGeometry x="-590" y="760" width="120" height="80" as="geometry" />
        </mxCell>
        <mxCell id="QvkCXpr15zVtPhJupILJ-186" value="" style="whiteSpace=wrap;html=1;aspect=fixed;fillColor=none;" parent="QvkCXpr15zVtPhJupILJ-185" vertex="1">
          <mxGeometry width="80" height="80" as="geometry" />
        </mxCell>
        <mxCell id="QvkCXpr15zVtPhJupILJ-187" value="&lt;font style=&quot;font-size: 29px;&quot;&gt;0&lt;/font&gt;" style="text;html=1;align=center;verticalAlign=middle;whiteSpace=wrap;rounded=0;" parent="QvkCXpr15zVtPhJupILJ-185" vertex="1">
          <mxGeometry width="80" height="80" as="geometry" />
        </mxCell>
        <mxCell id="QvkCXpr15zVtPhJupILJ-188" value="" style="endArrow=none;html=1;rounded=0;exitX=1;exitY=0.5;exitDx=0;exitDy=0;strokeWidth=2;" parent="QvkCXpr15zVtPhJupILJ-185" source="QvkCXpr15zVtPhJupILJ-187" edge="1">
          <mxGeometry width="50" height="50" relative="1" as="geometry">
            <mxPoint x="110" y="60" as="sourcePoint" />
            <mxPoint x="120" y="40" as="targetPoint" />
          </mxGeometry>
        </mxCell>
        <mxCell id="QvkCXpr15zVtPhJupILJ-189" value="" style="group" parent="1" vertex="1" connectable="0">
          <mxGeometry x="-470" y="740" width="160" height="100" as="geometry" />
        </mxCell>
        <mxCell id="QvkCXpr15zVtPhJupILJ-190" value="&lt;span style=&quot;font-size: 15px;&quot;&gt;flag_pluie_verf = 0&lt;/span&gt;" style="rounded=0;whiteSpace=wrap;html=1;fillColor=none;" parent="QvkCXpr15zVtPhJupILJ-189" vertex="1">
          <mxGeometry y="20" width="160" height="80" as="geometry" />
        </mxCell>
        <mxCell id="QvkCXpr15zVtPhJupILJ-191" value="" style="endArrow=block;html=1;rounded=0;exitX=0;exitY=1;exitDx=0;exitDy=0;endFill=1;strokeWidth=2;" parent="QvkCXpr15zVtPhJupILJ-189" source="QvkCXpr15zVtPhJupILJ-190" edge="1">
          <mxGeometry width="50" height="50" relative="1" as="geometry">
            <mxPoint x="-95" y="85" as="sourcePoint" />
            <mxPoint as="targetPoint" />
          </mxGeometry>
        </mxCell>
        <mxCell id="QvkCXpr15zVtPhJupILJ-192" value="" style="group" parent="1" vertex="1" connectable="0">
          <mxGeometry x="1551" y="520" width="270" height="160" as="geometry" />
        </mxCell>
        <mxCell id="QvkCXpr15zVtPhJupILJ-193" value="" style="endArrow=none;html=1;rounded=0;strokeWidth=2;" parent="QvkCXpr15zVtPhJupILJ-192" edge="1">
          <mxGeometry width="50" height="50" relative="1" as="geometry">
            <mxPoint x="13.708235294117701" y="160" as="sourcePoint" />
            <mxPoint x="13.708235294117701" as="targetPoint" />
          </mxGeometry>
        </mxCell>
        <mxCell id="QvkCXpr15zVtPhJupILJ-194" value="" style="endArrow=none;html=1;rounded=0;strokeWidth=2;" parent="QvkCXpr15zVtPhJupILJ-192" edge="1">
          <mxGeometry width="50" height="50" relative="1" as="geometry">
            <mxPoint y="80" as="sourcePoint" />
            <mxPoint x="28.23529411764706" y="80" as="targetPoint" />
          </mxGeometry>
        </mxCell>
        <mxCell id="QvkCXpr15zVtPhJupILJ-195" value="&lt;font style=&quot;font-size: 18px;&quot;&gt;time_IRQ_acquisition&amp;nbsp;== 0&lt;/font&gt;&lt;div style=&quot;text-align: center;&quot;&gt;&lt;font style=&quot;font-size: 18px;&quot;&gt;flag_update == 0&lt;br&gt;flag_page_change == 0&lt;/font&gt;&lt;/div&gt;&lt;div style=&quot;text-align: center;&quot;&gt;&lt;font style=&quot;font-size: 18px;&quot;&gt;&lt;span style=&quot;font-size: 15px;&quot;&gt;flag_pluie_verf == 0&lt;/span&gt;&lt;/font&gt;&lt;/div&gt;&lt;div style=&quot;text-align: center;&quot;&gt;&lt;font style=&quot;font-size: 18px;&quot;&gt;&lt;span style=&quot;font-size: 15px;&quot;&gt;flag_vent_verf == 0&lt;/span&gt;&lt;span style=&quot;font-size: 15px;&quot;&gt;&lt;br&gt;&lt;/span&gt;&lt;/font&gt;&lt;/div&gt;&lt;div style=&quot;text-align: center;&quot;&gt;&lt;font style=&quot;font-size: 18px;&quot;&gt;&lt;span style=&quot;background-color: initial;&quot;&gt;flag_IRQ_vent &lt;/span&gt;== 1&lt;/font&gt;&lt;/div&gt;&lt;div style=&quot;text-align: center;&quot;&gt;&lt;span style=&quot;color: rgba(0, 0, 0, 0); font-family: monospace; font-size: 0px; text-align: start; text-wrap: nowrap;&quot;&gt;%3CmxGraphModel%3E%3Croot%3E%3CmxCell%20id%3D%220%22%2F%3E%3CmxCell%20id%3D%221%22%20parent%3D%220%22%2F%3E%3CmxCell%20id%3D%222%22%20value%3D%22%22%20style%3D%22group%22%20vertex%3D%221%22%20connectable%3D%220%22%20parent%3D%221%22%3E%3CmxGeometry%20x%3D%22850%22%20y%3D%22520%22%20width%3D%22240%22%20height%3D%22160%22%20as%3D%22geometry%22%2F%3E%3C%2FmxCell%3E%3CmxCell%20id%3D%223%22%20value%3D%22%22%20style%3D%22endArrow%3Dnone%3Bhtml%3D1%3Brounded%3D0%3BstrokeWidth%3D2%3B%22%20edge%3D%221%22%20parent%3D%222%22%3E%3CmxGeometry%20width%3D%2250%22%20height%3D%2250%22%20relative%3D%221%22%20as%3D%22geometry%22%3E%3CmxPoint%20x%3D%2213.708235294117701%22%20y%3D%22160%22%20as%3D%22sourcePoint%22%2F%3E%3CmxPoint%20x%3D%2213.708235294117701%22%20as%3D%22targetPoint%22%2F%3E%3C%2FmxGeometry%3E%3C%2FmxCell%3E%3CmxCell%20id%3D%224%22%20value%3D%22%22%20style%3D%22endArrow%3Dnone%3Bhtml%3D1%3Brounded%3D0%3BstrokeWidth%3D2%3B%22%20edge%3D%221%22%20parent%3D%222%22%3E%3CmxGeometry%20width%3D%2250%22%20height%3D%2250%22%20relative%3D%221%22%20as%3D%22geometry%22%3E%3CmxPoint%20y%3D%2280%22%20as%3D%22sourcePoint%22%2F%3E%3CmxPoint%20x%3D%2228.23529411764706%22%20y%3D%2280%22%20as%3D%22targetPoint%22%2F%3E%3C%2FmxGeometry%3E%3C%2FmxCell%3E%3CmxCell%20id%3D%225%22%20value%3D%22%26lt%3Bfont%20style%3D%26quot%3Bfont-size%3A%2018px%3B%26quot%3B%26gt%3Btime_acquisition%20%3D%3D%200%26lt%3B%2Ffont%26gt%3B%26lt%3Bdiv%20style%3D%26quot%3Btext-align%3A%20center%3B%26quot%3B%26gt%3B%26lt%3Bfont%20style%3D%26quot%3Bfont-size%3A%2018px%3B%26quot%3B%26gt%3Bflag_update%20%3D%3D%200%26lt%3Bbr%26gt%3Bflag_page_change%20%3D%3D%201%26lt%3B%2Ffont%26gt%3B%26lt%3B%2Fdiv%26gt%3B%22%20style%3D%22text%3Bhtml%3D1%3Balign%3Dleft%3BverticalAlign%3Dmiddle%3BwhiteSpace%3Dwrap%3Brounded%3D0%3B%22%20vertex%3D%221%22%20parent%3D%222%22%3E%3CmxGeometry%20x%3D%2228.23529411764706%22%20y%3D%2240%22%20width%3D%22211.76470588235298%22%20height%3D%2280%22%20as%3D%22geometry%22%2F%3E%3C%2FmxCell%3E%3C%2Froot%3E%3C%2FmxGraphModel%3Eflag_puie&lt;/span&gt;&lt;br&gt;&lt;/div&gt;" style="text;html=1;align=left;verticalAlign=middle;whiteSpace=wrap;rounded=0;" parent="QvkCXpr15zVtPhJupILJ-192" vertex="1">
          <mxGeometry x="28.24" width="241.76" height="150" as="geometry" />
        </mxCell>
        <mxCell id="QvkCXpr15zVtPhJupILJ-196" value="" style="group" parent="1" vertex="1" connectable="0">
          <mxGeometry x="1530" y="682.5" width="120" height="80" as="geometry" />
        </mxCell>
        <mxCell id="QvkCXpr15zVtPhJupILJ-197" value="" style="whiteSpace=wrap;html=1;aspect=fixed;fillColor=none;" parent="QvkCXpr15zVtPhJupILJ-196" vertex="1">
          <mxGeometry width="80" height="80" as="geometry" />
        </mxCell>
        <mxCell id="QvkCXpr15zVtPhJupILJ-198" value="&lt;font style=&quot;font-size: 29px;&quot;&gt;M0&lt;/font&gt;" style="text;html=1;align=center;verticalAlign=middle;whiteSpace=wrap;rounded=0;" parent="QvkCXpr15zVtPhJupILJ-196" vertex="1">
          <mxGeometry width="80" height="80" as="geometry" />
        </mxCell>
        <mxCell id="QvkCXpr15zVtPhJupILJ-199" style="edgeStyle=orthogonalEdgeStyle;rounded=0;orthogonalLoop=1;jettySize=auto;html=1;exitX=0;exitY=0.25;exitDx=0;exitDy=0;entryX=1;entryY=0.25;entryDx=0;entryDy=0;endArrow=none;endFill=0;" parent="QvkCXpr15zVtPhJupILJ-196" source="QvkCXpr15zVtPhJupILJ-198" target="QvkCXpr15zVtPhJupILJ-198" edge="1">
          <mxGeometry relative="1" as="geometry">
            <Array as="points">
              <mxPoint x="40" y="20" />
              <mxPoint x="40" y="20" />
            </Array>
          </mxGeometry>
        </mxCell>
        <mxCell id="QvkCXpr15zVtPhJupILJ-200" style="edgeStyle=orthogonalEdgeStyle;rounded=0;orthogonalLoop=1;jettySize=auto;html=1;exitX=0;exitY=0.75;exitDx=0;exitDy=0;entryX=1;entryY=0.75;entryDx=0;entryDy=0;endArrow=none;endFill=0;" parent="QvkCXpr15zVtPhJupILJ-196" source="QvkCXpr15zVtPhJupILJ-198" target="QvkCXpr15zVtPhJupILJ-198" edge="1">
          <mxGeometry relative="1" as="geometry">
            <Array as="points">
              <mxPoint x="50" y="60" />
              <mxPoint x="50" y="60" />
            </Array>
          </mxGeometry>
        </mxCell>
        <mxCell id="QvkCXpr15zVtPhJupILJ-201" value="" style="group" parent="1" vertex="1" connectable="0">
          <mxGeometry x="1560" y="762.5" width="130" height="80" as="geometry" />
        </mxCell>
        <mxCell id="QvkCXpr15zVtPhJupILJ-202" value="" style="endArrow=none;html=1;rounded=0;strokeWidth=2;" parent="QvkCXpr15zVtPhJupILJ-201" edge="1">
          <mxGeometry width="50" height="50" relative="1" as="geometry">
            <mxPoint x="9.710000000000036" y="80" as="sourcePoint" />
            <mxPoint x="9.710000000000036" as="targetPoint" />
          </mxGeometry>
        </mxCell>
        <mxCell id="QvkCXpr15zVtPhJupILJ-203" value="" style="endArrow=none;html=1;rounded=0;strokeWidth=2;" parent="QvkCXpr15zVtPhJupILJ-201" edge="1">
          <mxGeometry width="50" height="50" relative="1" as="geometry">
            <mxPoint y="40" as="sourcePoint" />
            <mxPoint x="20" y="40" as="targetPoint" />
          </mxGeometry>
        </mxCell>
        <mxCell id="QvkCXpr15zVtPhJupILJ-204" value="&lt;font style=&quot;font-size: 18px;&quot;&gt;1&lt;/font&gt;" style="text;html=1;align=left;verticalAlign=middle;whiteSpace=wrap;rounded=0;" parent="QvkCXpr15zVtPhJupILJ-201" vertex="1">
          <mxGeometry x="20" y="20" width="110" height="40" as="geometry" />
        </mxCell>
        <mxCell id="QvkCXpr15zVtPhJupILJ-205" value="verfication si vent" style="text;html=1;align=center;verticalAlign=middle;whiteSpace=wrap;rounded=0;" parent="1" vertex="1">
          <mxGeometry x="1630" y="707.5" width="120" height="30" as="geometry" />
        </mxCell>
        <mxCell id="hL8D24npAY1kQglWVBG0-5" value="" style="group" vertex="1" connectable="0" parent="1">
          <mxGeometry x="-510" y="385" width="120" height="80" as="geometry" />
        </mxCell>
        <mxCell id="hL8D24npAY1kQglWVBG0-6" value="" style="whiteSpace=wrap;html=1;aspect=fixed;fillColor=none;" vertex="1" parent="hL8D24npAY1kQglWVBG0-5">
          <mxGeometry width="80" height="80" as="geometry" />
        </mxCell>
        <mxCell id="hL8D24npAY1kQglWVBG0-7" value="&lt;font style=&quot;font-size: 29px;&quot;&gt;0&lt;/font&gt;" style="text;html=1;align=center;verticalAlign=middle;whiteSpace=wrap;rounded=0;" vertex="1" parent="hL8D24npAY1kQglWVBG0-5">
          <mxGeometry width="80" height="80" as="geometry" />
        </mxCell>
        <mxCell id="hL8D24npAY1kQglWVBG0-8" value="" style="endArrow=none;html=1;rounded=0;exitX=1;exitY=0.5;exitDx=0;exitDy=0;strokeWidth=2;" edge="1" parent="hL8D24npAY1kQglWVBG0-5" source="hL8D24npAY1kQglWVBG0-7">
          <mxGeometry width="50" height="50" relative="1" as="geometry">
            <mxPoint x="110" y="60" as="sourcePoint" />
            <mxPoint x="120" y="40" as="targetPoint" />
          </mxGeometry>
        </mxCell>
        <mxCell id="hL8D24npAY1kQglWVBG0-9" value="" style="group" vertex="1" connectable="0" parent="1">
          <mxGeometry x="-480" y="305" width="130" height="80" as="geometry" />
        </mxCell>
        <mxCell id="hL8D24npAY1kQglWVBG0-10" value="" style="endArrow=none;html=1;rounded=0;strokeWidth=2;" edge="1" parent="hL8D24npAY1kQglWVBG0-9">
          <mxGeometry width="50" height="50" relative="1" as="geometry">
            <mxPoint x="9.710000000000036" y="80" as="sourcePoint" />
            <mxPoint x="9.710000000000036" as="targetPoint" />
          </mxGeometry>
        </mxCell>
        <mxCell id="hL8D24npAY1kQglWVBG0-11" value="" style="endArrow=none;html=1;rounded=0;strokeWidth=2;" edge="1" parent="hL8D24npAY1kQglWVBG0-9">
          <mxGeometry width="50" height="50" relative="1" as="geometry">
            <mxPoint y="40" as="sourcePoint" />
            <mxPoint x="20" y="40" as="targetPoint" />
          </mxGeometry>
        </mxCell>
        <mxCell id="hL8D24npAY1kQglWVBG0-12" value="&lt;font style=&quot;font-size: 18px;&quot;&gt;1&lt;/font&gt;" style="text;html=1;align=left;verticalAlign=middle;whiteSpace=wrap;rounded=0;" vertex="1" parent="hL8D24npAY1kQglWVBG0-9">
          <mxGeometry x="20" y="20" width="110" height="40" as="geometry" />
        </mxCell>
        <mxCell id="hL8D24npAY1kQglWVBG0-13" value="" style="group" vertex="1" connectable="0" parent="1">
          <mxGeometry x="-390" y="370" width="130" height="100" as="geometry" />
        </mxCell>
        <mxCell id="hL8D24npAY1kQglWVBG0-14" value="recupération de la dernier mesure pluie" style="rounded=0;whiteSpace=wrap;html=1;fillColor=none;" vertex="1" parent="hL8D24npAY1kQglWVBG0-13">
          <mxGeometry y="20" width="120" height="80" as="geometry" />
        </mxCell>
        <mxCell id="hL8D24npAY1kQglWVBG0-15" value="" style="endArrow=block;html=1;rounded=0;exitX=0;exitY=1;exitDx=0;exitDy=0;endFill=1;strokeWidth=2;" edge="1" parent="hL8D24npAY1kQglWVBG0-13" source="hL8D24npAY1kQglWVBG0-14">
          <mxGeometry width="50" height="50" relative="1" as="geometry">
            <mxPoint x="-95" y="85" as="sourcePoint" />
            <mxPoint as="targetPoint" />
          </mxGeometry>
        </mxCell>
        <mxCell id="hL8D24npAY1kQglWVBG0-20" value="" style="group" vertex="1" connectable="0" parent="1">
          <mxGeometry x="-400" y="520" width="160" height="80" as="geometry" />
        </mxCell>
        <mxCell id="hL8D24npAY1kQglWVBG0-21" value="" style="endArrow=none;html=1;rounded=0;strokeWidth=2;" edge="1" parent="hL8D24npAY1kQglWVBG0-20">
          <mxGeometry width="50" height="50" relative="1" as="geometry">
            <mxPoint x="9.710000000000036" y="80" as="sourcePoint" />
            <mxPoint x="9.710000000000036" as="targetPoint" />
          </mxGeometry>
        </mxCell>
        <mxCell id="hL8D24npAY1kQglWVBG0-22" value="" style="endArrow=none;html=1;rounded=0;strokeWidth=2;" edge="1" parent="hL8D24npAY1kQglWVBG0-20">
          <mxGeometry width="50" height="50" relative="1" as="geometry">
            <mxPoint y="40" as="sourcePoint" />
            <mxPoint x="20" y="40" as="targetPoint" />
          </mxGeometry>
        </mxCell>
        <mxCell id="hL8D24npAY1kQglWVBG0-23" value="&lt;span style=&quot;font-size: 18px;&quot;&gt;lastm_pluie &amp;lt; ?&lt;/span&gt;" style="text;html=1;align=left;verticalAlign=middle;whiteSpace=wrap;rounded=0;" vertex="1" parent="hL8D24npAY1kQglWVBG0-20">
          <mxGeometry x="20" y="20" width="140" height="40" as="geometry" />
        </mxCell>
        <mxCell id="hL8D24npAY1kQglWVBG0-24" value="" style="group" vertex="1" connectable="0" parent="1">
          <mxGeometry x="-430" y="600" width="120" height="80" as="geometry" />
        </mxCell>
        <mxCell id="hL8D24npAY1kQglWVBG0-25" value="" style="whiteSpace=wrap;html=1;aspect=fixed;fillColor=none;" vertex="1" parent="hL8D24npAY1kQglWVBG0-24">
          <mxGeometry width="80" height="80" as="geometry" />
        </mxCell>
        <mxCell id="hL8D24npAY1kQglWVBG0-26" value="&lt;font style=&quot;font-size: 29px;&quot;&gt;0&lt;/font&gt;" style="text;html=1;align=center;verticalAlign=middle;whiteSpace=wrap;rounded=0;" vertex="1" parent="hL8D24npAY1kQglWVBG0-24">
          <mxGeometry width="80" height="80" as="geometry" />
        </mxCell>
        <mxCell id="hL8D24npAY1kQglWVBG0-27" value="" style="endArrow=none;html=1;rounded=0;exitX=1;exitY=0.5;exitDx=0;exitDy=0;strokeWidth=2;" edge="1" parent="hL8D24npAY1kQglWVBG0-24" source="hL8D24npAY1kQglWVBG0-26">
          <mxGeometry width="50" height="50" relative="1" as="geometry">
            <mxPoint x="110" y="60" as="sourcePoint" />
            <mxPoint x="120" y="40" as="targetPoint" />
          </mxGeometry>
        </mxCell>
        <mxCell id="hL8D24npAY1kQglWVBG0-28" value="" style="group" vertex="1" connectable="0" parent="1">
          <mxGeometry x="-310" y="590" width="190" height="100" as="geometry" />
        </mxCell>
        <mxCell id="hL8D24npAY1kQglWVBG0-29" value="&lt;span style=&quot;font-size: 18px;&quot;&gt;flag_IRQ_pluie = 0&lt;/span&gt;" style="rounded=0;whiteSpace=wrap;html=1;fillColor=none;" vertex="1" parent="hL8D24npAY1kQglWVBG0-28">
          <mxGeometry y="20" width="190" height="80" as="geometry" />
        </mxCell>
        <mxCell id="hL8D24npAY1kQglWVBG0-30" value="" style="endArrow=block;html=1;rounded=0;exitX=0;exitY=1;exitDx=0;exitDy=0;endFill=1;strokeWidth=2;" edge="1" parent="hL8D24npAY1kQglWVBG0-28" source="hL8D24npAY1kQglWVBG0-29">
          <mxGeometry width="50" height="50" relative="1" as="geometry">
            <mxPoint x="-95" y="85" as="sourcePoint" />
            <mxPoint as="targetPoint" />
          </mxGeometry>
        </mxCell>
        <mxCell id="hL8D24npAY1kQglWVBG0-36" value="" style="group" vertex="1" connectable="0" parent="1">
          <mxGeometry x="-750" y="830" width="580" height="80" as="geometry" />
        </mxCell>
        <mxCell id="hL8D24npAY1kQglWVBG0-37" value="" style="endArrow=none;html=1;rounded=0;strokeWidth=2;" edge="1" parent="hL8D24npAY1kQglWVBG0-36">
          <mxGeometry width="50" height="50" relative="1" as="geometry">
            <mxPoint x="196.4285714285714" y="-90" as="sourcePoint" />
            <mxPoint x="362.1428571428571" y="-90" as="targetPoint" />
          </mxGeometry>
        </mxCell>
        <mxCell id="hL8D24npAY1kQglWVBG0-38" value="" style="endArrow=none;html=1;rounded=0;strokeWidth=2;" edge="1" parent="hL8D24npAY1kQglWVBG0-36">
          <mxGeometry width="50" height="50" relative="1" as="geometry">
            <mxPoint x="362.1428571428571" y="-90" as="sourcePoint" />
            <mxPoint x="362.1428571428571" y="-150" as="targetPoint" />
          </mxGeometry>
        </mxCell>
        <mxCell id="hL8D24npAY1kQglWVBG0-39" value="" style="endArrow=none;html=1;rounded=0;strokeWidth=2;" edge="1" parent="hL8D24npAY1kQglWVBG0-36">
          <mxGeometry width="50" height="50" relative="1" as="geometry">
            <mxPoint x="341.4285714285714" y="-120" as="sourcePoint" />
            <mxPoint x="382.8571428571428" y="-120" as="targetPoint" />
          </mxGeometry>
        </mxCell>
        <mxCell id="hL8D24npAY1kQglWVBG0-41" value="" style="endArrow=none;html=1;rounded=0;strokeWidth=2;" edge="1" parent="hL8D24npAY1kQglWVBG0-36">
          <mxGeometry width="50" height="50" relative="1" as="geometry">
            <mxPoint x="196.4285714285714" y="-70" as="sourcePoint" />
            <mxPoint x="196.4285714285714" y="-90" as="targetPoint" />
          </mxGeometry>
        </mxCell>
        <mxCell id="hL8D24npAY1kQglWVBG0-42" value="" style="endArrow=none;html=1;rounded=0;strokeWidth=2;" edge="1" parent="hL8D24npAY1kQglWVBG0-36">
          <mxGeometry width="50" height="50" relative="1" as="geometry">
            <mxPoint x="30.714285714285708" y="-90" as="sourcePoint" />
            <mxPoint x="196.4285714285714" y="-90" as="targetPoint" />
          </mxGeometry>
        </mxCell>
        <mxCell id="hL8D24npAY1kQglWVBG0-43" value="" style="endArrow=none;html=1;rounded=0;strokeWidth=2;" edge="1" parent="hL8D24npAY1kQglWVBG0-36">
          <mxGeometry width="50" height="50" relative="1" as="geometry">
            <mxPoint x="30.714285714285708" y="-90" as="sourcePoint" />
            <mxPoint x="31" y="-310" as="targetPoint" />
          </mxGeometry>
        </mxCell>
        <mxCell id="hL8D24npAY1kQglWVBG0-44" value="" style="endArrow=none;html=1;rounded=0;strokeWidth=2;" edge="1" parent="hL8D24npAY1kQglWVBG0-36">
          <mxGeometry width="50" height="50" relative="1" as="geometry">
            <mxPoint x="10" y="-120" as="sourcePoint" />
            <mxPoint x="51.42857142857142" y="-120" as="targetPoint" />
          </mxGeometry>
        </mxCell>
        <mxCell id="hL8D24npAY1kQglWVBG0-45" value="&lt;span style=&quot;font-size: 18px;&quot;&gt;lastm_pluie &amp;gt; ?&lt;/span&gt;" style="text;html=1;align=left;verticalAlign=middle;whiteSpace=wrap;rounded=0;" vertex="1" parent="hL8D24npAY1kQglWVBG0-36">
          <mxGeometry x="51.42857142857142" y="-140" width="207.14285714285714" height="40" as="geometry" />
        </mxCell>
        <mxCell id="hL8D24npAY1kQglWVBG0-40" value="&lt;font style=&quot;font-size: 18px;&quot;&gt;1&lt;/font&gt;" style="text;html=1;align=left;verticalAlign=middle;whiteSpace=wrap;rounded=0;" vertex="1" parent="1">
          <mxGeometry x="-359.99571428571426" y="700" width="196.78571428571428" height="40" as="geometry" />
        </mxCell>
        <mxCell id="hL8D24npAY1kQglWVBG0-47" value="" style="endArrow=none;html=1;rounded=0;strokeColor=default;" edge="1" parent="1">
          <mxGeometry width="50" height="50" relative="1" as="geometry">
            <mxPoint x="-720" y="520" as="sourcePoint" />
            <mxPoint x="-390" y="520" as="targetPoint" />
          </mxGeometry>
        </mxCell>
        <mxCell id="hL8D24npAY1kQglWVBG0-48" value="" style="endArrow=none;html=1;rounded=0;entryX=0.5;entryY=1;entryDx=0;entryDy=0;" edge="1" parent="1" target="hL8D24npAY1kQglWVBG0-7">
          <mxGeometry width="50" height="50" relative="1" as="geometry">
            <mxPoint x="-470" y="520" as="sourcePoint" />
            <mxPoint x="-240" y="700" as="targetPoint" />
          </mxGeometry>
        </mxCell>
        <mxCell id="hL8D24npAY1kQglWVBG0-49" value="" style="whiteSpace=wrap;html=1;aspect=fixed;fillColor=none;" vertex="1" parent="1">
          <mxGeometry x="-1270" y="255" width="80" height="80" as="geometry" />
        </mxCell>
        <mxCell id="hL8D24npAY1kQglWVBG0-50" value="&lt;font style=&quot;font-size: 29px;&quot;&gt;E0&lt;/font&gt;" style="text;html=1;align=center;verticalAlign=middle;whiteSpace=wrap;rounded=0;" vertex="1" parent="1">
          <mxGeometry x="-1270" y="255" width="80" height="80" as="geometry" />
        </mxCell>
        <mxCell id="hL8D24npAY1kQglWVBG0-51" style="edgeStyle=orthogonalEdgeStyle;rounded=0;orthogonalLoop=1;jettySize=auto;html=1;exitX=0;exitY=0.25;exitDx=0;exitDy=0;entryX=1;entryY=0.25;entryDx=0;entryDy=0;endArrow=none;endFill=0;" edge="1" parent="1" source="hL8D24npAY1kQglWVBG0-50" target="hL8D24npAY1kQglWVBG0-50">
          <mxGeometry relative="1" as="geometry">
            <Array as="points">
              <mxPoint x="-1230" y="275" />
              <mxPoint x="-1230" y="275" />
            </Array>
          </mxGeometry>
        </mxCell>
        <mxCell id="hL8D24npAY1kQglWVBG0-52" style="edgeStyle=orthogonalEdgeStyle;rounded=0;orthogonalLoop=1;jettySize=auto;html=1;exitX=0;exitY=0.75;exitDx=0;exitDy=0;entryX=1;entryY=0.75;entryDx=0;entryDy=0;endArrow=none;endFill=0;" edge="1" parent="1" source="hL8D24npAY1kQglWVBG0-50" target="hL8D24npAY1kQglWVBG0-50">
          <mxGeometry relative="1" as="geometry">
            <Array as="points">
              <mxPoint x="-1220" y="315" />
              <mxPoint x="-1220" y="315" />
            </Array>
          </mxGeometry>
        </mxCell>
        <mxCell id="hL8D24npAY1kQglWVBG0-53" value="" style="whiteSpace=wrap;html=1;aspect=fixed;fillColor=none;" vertex="1" parent="1">
          <mxGeometry x="-1350" y="950" width="80" height="80" as="geometry" />
        </mxCell>
        <mxCell id="hL8D24npAY1kQglWVBG0-54" value="&lt;font style=&quot;font-size: 29px;&quot;&gt;S0&lt;/font&gt;" style="text;html=1;align=center;verticalAlign=middle;whiteSpace=wrap;rounded=0;" vertex="1" parent="1">
          <mxGeometry x="-1350" y="950" width="80" height="80" as="geometry" />
        </mxCell>
        <mxCell id="hL8D24npAY1kQglWVBG0-55" style="edgeStyle=orthogonalEdgeStyle;rounded=0;orthogonalLoop=1;jettySize=auto;html=1;exitX=0;exitY=0.25;exitDx=0;exitDy=0;entryX=1;entryY=0.25;entryDx=0;entryDy=0;endArrow=none;endFill=0;" edge="1" parent="1" source="hL8D24npAY1kQglWVBG0-54" target="hL8D24npAY1kQglWVBG0-54">
          <mxGeometry relative="1" as="geometry">
            <Array as="points">
              <mxPoint x="-1310" y="970" />
              <mxPoint x="-1310" y="970" />
            </Array>
          </mxGeometry>
        </mxCell>
        <mxCell id="hL8D24npAY1kQglWVBG0-56" style="edgeStyle=orthogonalEdgeStyle;rounded=0;orthogonalLoop=1;jettySize=auto;html=1;exitX=0;exitY=0.75;exitDx=0;exitDy=0;entryX=1;entryY=0.75;entryDx=0;entryDy=0;endArrow=none;endFill=0;" edge="1" parent="1" source="hL8D24npAY1kQglWVBG0-54" target="hL8D24npAY1kQglWVBG0-54">
          <mxGeometry relative="1" as="geometry">
            <Array as="points">
              <mxPoint x="-1300" y="1010" />
              <mxPoint x="-1300" y="1010" />
            </Array>
          </mxGeometry>
        </mxCell>
        <mxCell id="hL8D24npAY1kQglWVBG0-57" value="" style="group" vertex="1" connectable="0" parent="1">
          <mxGeometry x="-1320" y="870" width="130" height="80" as="geometry" />
        </mxCell>
        <mxCell id="hL8D24npAY1kQglWVBG0-58" value="" style="endArrow=none;html=1;rounded=0;strokeWidth=2;" edge="1" parent="hL8D24npAY1kQglWVBG0-57">
          <mxGeometry width="50" height="50" relative="1" as="geometry">
            <mxPoint x="9.710000000000036" y="80" as="sourcePoint" />
            <mxPoint x="9.710000000000036" as="targetPoint" />
          </mxGeometry>
        </mxCell>
        <mxCell id="hL8D24npAY1kQglWVBG0-59" value="" style="endArrow=none;html=1;rounded=0;strokeWidth=2;" edge="1" parent="hL8D24npAY1kQglWVBG0-57">
          <mxGeometry width="50" height="50" relative="1" as="geometry">
            <mxPoint y="40" as="sourcePoint" />
            <mxPoint x="20" y="40" as="targetPoint" />
          </mxGeometry>
        </mxCell>
        <mxCell id="hL8D24npAY1kQglWVBG0-60" value="&lt;font style=&quot;font-size: 18px;&quot;&gt;1&lt;/font&gt;" style="text;html=1;align=left;verticalAlign=middle;whiteSpace=wrap;rounded=0;" vertex="1" parent="hL8D24npAY1kQglWVBG0-57">
          <mxGeometry x="20" y="20" width="110" height="40" as="geometry" />
        </mxCell>
        <mxCell id="hL8D24npAY1kQglWVBG0-61" value="verfication si vent" style="text;html=1;align=center;verticalAlign=middle;whiteSpace=wrap;rounded=0;" vertex="1" parent="1">
          <mxGeometry x="-1270" y="200" width="120" height="30" as="geometry" />
        </mxCell>
        <mxCell id="hL8D24npAY1kQglWVBG0-62" value="" style="group" vertex="1" connectable="0" parent="1">
          <mxGeometry x="-1350" y="790" width="120" height="80" as="geometry" />
        </mxCell>
        <mxCell id="hL8D24npAY1kQglWVBG0-63" value="" style="whiteSpace=wrap;html=1;aspect=fixed;fillColor=none;" vertex="1" parent="hL8D24npAY1kQglWVBG0-62">
          <mxGeometry width="80" height="80" as="geometry" />
        </mxCell>
        <mxCell id="hL8D24npAY1kQglWVBG0-64" value="&lt;font style=&quot;font-size: 29px;&quot;&gt;0&lt;/font&gt;" style="text;html=1;align=center;verticalAlign=middle;whiteSpace=wrap;rounded=0;" vertex="1" parent="hL8D24npAY1kQglWVBG0-62">
          <mxGeometry width="80" height="80" as="geometry" />
        </mxCell>
        <mxCell id="hL8D24npAY1kQglWVBG0-65" value="" style="endArrow=none;html=1;rounded=0;exitX=1;exitY=0.5;exitDx=0;exitDy=0;strokeWidth=2;" edge="1" parent="hL8D24npAY1kQglWVBG0-62" source="hL8D24npAY1kQglWVBG0-64">
          <mxGeometry width="50" height="50" relative="1" as="geometry">
            <mxPoint x="110" y="60" as="sourcePoint" />
            <mxPoint x="120" y="40" as="targetPoint" />
          </mxGeometry>
        </mxCell>
        <mxCell id="hL8D24npAY1kQglWVBG0-66" value="" style="group" vertex="1" connectable="0" parent="1">
          <mxGeometry x="-1230" y="770" width="160" height="100" as="geometry" />
        </mxCell>
        <mxCell id="hL8D24npAY1kQglWVBG0-67" value="&lt;span style=&quot;font-size: 15px;&quot;&gt;flag_pluie_vent = 0&lt;/span&gt;" style="rounded=0;whiteSpace=wrap;html=1;fillColor=none;" vertex="1" parent="hL8D24npAY1kQglWVBG0-66">
          <mxGeometry y="20" width="160" height="80" as="geometry" />
        </mxCell>
        <mxCell id="hL8D24npAY1kQglWVBG0-68" value="" style="endArrow=block;html=1;rounded=0;exitX=0;exitY=1;exitDx=0;exitDy=0;endFill=1;strokeWidth=2;" edge="1" parent="hL8D24npAY1kQglWVBG0-66" source="hL8D24npAY1kQglWVBG0-67">
          <mxGeometry width="50" height="50" relative="1" as="geometry">
            <mxPoint x="-95" y="85" as="sourcePoint" />
            <mxPoint as="targetPoint" />
          </mxGeometry>
        </mxCell>
        <mxCell id="hL8D24npAY1kQglWVBG0-69" value="" style="group" vertex="1" connectable="0" parent="1">
          <mxGeometry x="-1270" y="415" width="120" height="80" as="geometry" />
        </mxCell>
        <mxCell id="hL8D24npAY1kQglWVBG0-70" value="" style="whiteSpace=wrap;html=1;aspect=fixed;fillColor=none;" vertex="1" parent="hL8D24npAY1kQglWVBG0-69">
          <mxGeometry width="80" height="80" as="geometry" />
        </mxCell>
        <mxCell id="hL8D24npAY1kQglWVBG0-71" value="&lt;font style=&quot;font-size: 29px;&quot;&gt;0&lt;/font&gt;" style="text;html=1;align=center;verticalAlign=middle;whiteSpace=wrap;rounded=0;" vertex="1" parent="hL8D24npAY1kQglWVBG0-69">
          <mxGeometry width="80" height="80" as="geometry" />
        </mxCell>
        <mxCell id="hL8D24npAY1kQglWVBG0-72" value="" style="endArrow=none;html=1;rounded=0;exitX=1;exitY=0.5;exitDx=0;exitDy=0;strokeWidth=2;" edge="1" parent="hL8D24npAY1kQglWVBG0-69" source="hL8D24npAY1kQglWVBG0-71">
          <mxGeometry width="50" height="50" relative="1" as="geometry">
            <mxPoint x="110" y="60" as="sourcePoint" />
            <mxPoint x="120" y="40" as="targetPoint" />
          </mxGeometry>
        </mxCell>
        <mxCell id="hL8D24npAY1kQglWVBG0-73" value="" style="group" vertex="1" connectable="0" parent="1">
          <mxGeometry x="-1240" y="335" width="130" height="80" as="geometry" />
        </mxCell>
        <mxCell id="hL8D24npAY1kQglWVBG0-74" value="" style="endArrow=none;html=1;rounded=0;strokeWidth=2;" edge="1" parent="hL8D24npAY1kQglWVBG0-73">
          <mxGeometry width="50" height="50" relative="1" as="geometry">
            <mxPoint x="9.710000000000036" y="80" as="sourcePoint" />
            <mxPoint x="9.710000000000036" as="targetPoint" />
          </mxGeometry>
        </mxCell>
        <mxCell id="hL8D24npAY1kQglWVBG0-75" value="" style="endArrow=none;html=1;rounded=0;strokeWidth=2;" edge="1" parent="hL8D24npAY1kQglWVBG0-73">
          <mxGeometry width="50" height="50" relative="1" as="geometry">
            <mxPoint y="40" as="sourcePoint" />
            <mxPoint x="20" y="40" as="targetPoint" />
          </mxGeometry>
        </mxCell>
        <mxCell id="hL8D24npAY1kQglWVBG0-76" value="&lt;font style=&quot;font-size: 18px;&quot;&gt;1&lt;/font&gt;" style="text;html=1;align=left;verticalAlign=middle;whiteSpace=wrap;rounded=0;" vertex="1" parent="hL8D24npAY1kQglWVBG0-73">
          <mxGeometry x="20" y="20" width="110" height="40" as="geometry" />
        </mxCell>
        <mxCell id="hL8D24npAY1kQglWVBG0-77" value="" style="group" vertex="1" connectable="0" parent="1">
          <mxGeometry x="-1150" y="400" width="130" height="100" as="geometry" />
        </mxCell>
        <mxCell id="hL8D24npAY1kQglWVBG0-78" value="recupération de la dernier mesure vent" style="rounded=0;whiteSpace=wrap;html=1;fillColor=none;" vertex="1" parent="hL8D24npAY1kQglWVBG0-77">
          <mxGeometry y="20" width="120" height="80" as="geometry" />
        </mxCell>
        <mxCell id="hL8D24npAY1kQglWVBG0-79" value="" style="endArrow=block;html=1;rounded=0;exitX=0;exitY=1;exitDx=0;exitDy=0;endFill=1;strokeWidth=2;" edge="1" parent="hL8D24npAY1kQglWVBG0-77" source="hL8D24npAY1kQglWVBG0-78">
          <mxGeometry width="50" height="50" relative="1" as="geometry">
            <mxPoint x="-95" y="85" as="sourcePoint" />
            <mxPoint as="targetPoint" />
          </mxGeometry>
        </mxCell>
        <mxCell id="hL8D24npAY1kQglWVBG0-80" value="" style="group" vertex="1" connectable="0" parent="1">
          <mxGeometry x="-1160" y="550" width="160" height="80" as="geometry" />
        </mxCell>
        <mxCell id="hL8D24npAY1kQglWVBG0-81" value="" style="endArrow=none;html=1;rounded=0;strokeWidth=2;" edge="1" parent="hL8D24npAY1kQglWVBG0-80">
          <mxGeometry width="50" height="50" relative="1" as="geometry">
            <mxPoint x="9.710000000000036" y="80" as="sourcePoint" />
            <mxPoint x="9.710000000000036" as="targetPoint" />
          </mxGeometry>
        </mxCell>
        <mxCell id="hL8D24npAY1kQglWVBG0-82" value="" style="endArrow=none;html=1;rounded=0;strokeWidth=2;" edge="1" parent="hL8D24npAY1kQglWVBG0-80">
          <mxGeometry width="50" height="50" relative="1" as="geometry">
            <mxPoint y="40" as="sourcePoint" />
            <mxPoint x="20" y="40" as="targetPoint" />
          </mxGeometry>
        </mxCell>
        <mxCell id="hL8D24npAY1kQglWVBG0-83" value="&lt;span style=&quot;font-size: 18px;&quot;&gt;lastm_vent &amp;lt; ?&lt;/span&gt;" style="text;html=1;align=left;verticalAlign=middle;whiteSpace=wrap;rounded=0;" vertex="1" parent="hL8D24npAY1kQglWVBG0-80">
          <mxGeometry x="20" y="20" width="140" height="40" as="geometry" />
        </mxCell>
        <mxCell id="hL8D24npAY1kQglWVBG0-84" value="" style="group" vertex="1" connectable="0" parent="1">
          <mxGeometry x="-1190" y="630" width="120" height="80" as="geometry" />
        </mxCell>
        <mxCell id="hL8D24npAY1kQglWVBG0-85" value="" style="whiteSpace=wrap;html=1;aspect=fixed;fillColor=none;" vertex="1" parent="hL8D24npAY1kQglWVBG0-84">
          <mxGeometry width="80" height="80" as="geometry" />
        </mxCell>
        <mxCell id="hL8D24npAY1kQglWVBG0-86" value="&lt;font style=&quot;font-size: 29px;&quot;&gt;0&lt;/font&gt;" style="text;html=1;align=center;verticalAlign=middle;whiteSpace=wrap;rounded=0;" vertex="1" parent="hL8D24npAY1kQglWVBG0-84">
          <mxGeometry width="80" height="80" as="geometry" />
        </mxCell>
        <mxCell id="hL8D24npAY1kQglWVBG0-87" value="" style="endArrow=none;html=1;rounded=0;exitX=1;exitY=0.5;exitDx=0;exitDy=0;strokeWidth=2;" edge="1" parent="hL8D24npAY1kQglWVBG0-84" source="hL8D24npAY1kQglWVBG0-86">
          <mxGeometry width="50" height="50" relative="1" as="geometry">
            <mxPoint x="110" y="60" as="sourcePoint" />
            <mxPoint x="120" y="40" as="targetPoint" />
          </mxGeometry>
        </mxCell>
        <mxCell id="hL8D24npAY1kQglWVBG0-88" value="" style="endArrow=block;html=1;rounded=0;exitX=0;exitY=1;exitDx=0;exitDy=0;endFill=1;strokeWidth=2;" edge="1" parent="1">
          <mxGeometry width="50" height="50" relative="1" as="geometry">
            <mxPoint x="-1070" y="720" as="sourcePoint" />
            <mxPoint x="-1070" y="620" as="targetPoint" />
          </mxGeometry>
        </mxCell>
        <mxCell id="hL8D24npAY1kQglWVBG0-89" value="" style="group" vertex="1" connectable="0" parent="1">
          <mxGeometry x="-1510" y="860" width="580" height="80" as="geometry" />
        </mxCell>
        <mxCell id="hL8D24npAY1kQglWVBG0-90" value="" style="endArrow=none;html=1;rounded=0;strokeWidth=2;" edge="1" parent="hL8D24npAY1kQglWVBG0-89">
          <mxGeometry width="50" height="50" relative="1" as="geometry">
            <mxPoint x="196.4285714285714" y="-90" as="sourcePoint" />
            <mxPoint x="362.1428571428571" y="-90" as="targetPoint" />
          </mxGeometry>
        </mxCell>
        <mxCell id="hL8D24npAY1kQglWVBG0-91" value="" style="endArrow=none;html=1;rounded=0;strokeWidth=2;" edge="1" parent="hL8D24npAY1kQglWVBG0-89">
          <mxGeometry width="50" height="50" relative="1" as="geometry">
            <mxPoint x="362.1428571428571" y="-90" as="sourcePoint" />
            <mxPoint x="362.1428571428571" y="-150" as="targetPoint" />
          </mxGeometry>
        </mxCell>
        <mxCell id="hL8D24npAY1kQglWVBG0-92" value="" style="endArrow=none;html=1;rounded=0;strokeWidth=2;" edge="1" parent="hL8D24npAY1kQglWVBG0-89">
          <mxGeometry width="50" height="50" relative="1" as="geometry">
            <mxPoint x="341.4285714285714" y="-120" as="sourcePoint" />
            <mxPoint x="382.8571428571428" y="-120" as="targetPoint" />
          </mxGeometry>
        </mxCell>
        <mxCell id="hL8D24npAY1kQglWVBG0-93" value="" style="endArrow=none;html=1;rounded=0;strokeWidth=2;" edge="1" parent="hL8D24npAY1kQglWVBG0-89">
          <mxGeometry width="50" height="50" relative="1" as="geometry">
            <mxPoint x="196.4285714285714" y="-70" as="sourcePoint" />
            <mxPoint x="196.4285714285714" y="-90" as="targetPoint" />
          </mxGeometry>
        </mxCell>
        <mxCell id="hL8D24npAY1kQglWVBG0-94" value="" style="endArrow=none;html=1;rounded=0;strokeWidth=2;" edge="1" parent="hL8D24npAY1kQglWVBG0-89">
          <mxGeometry width="50" height="50" relative="1" as="geometry">
            <mxPoint x="30.714285714285708" y="-90" as="sourcePoint" />
            <mxPoint x="196.4285714285714" y="-90" as="targetPoint" />
          </mxGeometry>
        </mxCell>
        <mxCell id="hL8D24npAY1kQglWVBG0-95" value="" style="endArrow=none;html=1;rounded=0;strokeWidth=2;" edge="1" parent="hL8D24npAY1kQglWVBG0-89">
          <mxGeometry width="50" height="50" relative="1" as="geometry">
            <mxPoint x="30.714285714285708" y="-90" as="sourcePoint" />
            <mxPoint x="31" y="-310" as="targetPoint" />
          </mxGeometry>
        </mxCell>
        <mxCell id="hL8D24npAY1kQglWVBG0-96" value="" style="endArrow=none;html=1;rounded=0;strokeWidth=2;" edge="1" parent="hL8D24npAY1kQglWVBG0-89">
          <mxGeometry width="50" height="50" relative="1" as="geometry">
            <mxPoint x="10" y="-120" as="sourcePoint" />
            <mxPoint x="51.42857142857142" y="-120" as="targetPoint" />
          </mxGeometry>
        </mxCell>
        <mxCell id="hL8D24npAY1kQglWVBG0-97" value="&lt;span style=&quot;font-size: 18px;&quot;&gt;lastm_vent &amp;gt; ?&lt;/span&gt;" style="text;html=1;align=left;verticalAlign=middle;whiteSpace=wrap;rounded=0;" vertex="1" parent="hL8D24npAY1kQglWVBG0-89">
          <mxGeometry x="51.42857142857142" y="-140" width="207.14285714285714" height="40" as="geometry" />
        </mxCell>
        <mxCell id="hL8D24npAY1kQglWVBG0-98" value="&lt;font style=&quot;font-size: 18px;&quot;&gt;1&lt;/font&gt;" style="text;html=1;align=left;verticalAlign=middle;whiteSpace=wrap;rounded=0;" vertex="1" parent="1">
          <mxGeometry x="-1119.9957142857143" y="730" width="196.78571428571428" height="40" as="geometry" />
        </mxCell>
        <mxCell id="hL8D24npAY1kQglWVBG0-99" value="" style="endArrow=none;html=1;rounded=0;strokeColor=default;" edge="1" parent="1">
          <mxGeometry width="50" height="50" relative="1" as="geometry">
            <mxPoint x="-1480" y="550" as="sourcePoint" />
            <mxPoint x="-1150" y="550" as="targetPoint" />
          </mxGeometry>
        </mxCell>
        <mxCell id="hL8D24npAY1kQglWVBG0-100" value="" style="endArrow=none;html=1;rounded=0;entryX=0.5;entryY=1;entryDx=0;entryDy=0;" edge="1" parent="1" target="hL8D24npAY1kQglWVBG0-71">
          <mxGeometry width="50" height="50" relative="1" as="geometry">
            <mxPoint x="-1230" y="550" as="sourcePoint" />
            <mxPoint x="-1000" y="730" as="targetPoint" />
          </mxGeometry>
        </mxCell>
        <mxCell id="hL8D24npAY1kQglWVBG0-101" value="" style="group" vertex="1" connectable="0" parent="1">
          <mxGeometry x="-1070" y="620" width="190" height="100" as="geometry" />
        </mxCell>
        <mxCell id="hL8D24npAY1kQglWVBG0-102" value="&lt;span style=&quot;font-size: 18px;&quot;&gt;flag_IRQ_vent = 0&lt;/span&gt;" style="rounded=0;whiteSpace=wrap;html=1;fillColor=none;" vertex="1" parent="hL8D24npAY1kQglWVBG0-101">
          <mxGeometry y="20" width="190" height="80" as="geometry" />
        </mxCell>
        <mxCell id="hL8D24npAY1kQglWVBG0-103" value="" style="endArrow=block;html=1;rounded=0;exitX=0;exitY=1;exitDx=0;exitDy=0;endFill=1;strokeWidth=2;" edge="1" parent="hL8D24npAY1kQglWVBG0-101" source="hL8D24npAY1kQglWVBG0-102">
          <mxGeometry width="50" height="50" relative="1" as="geometry">
            <mxPoint x="-95" y="85" as="sourcePoint" />
            <mxPoint as="targetPoint" />
          </mxGeometry>
        </mxCell>
        <mxCell id="hL8D24npAY1kQglWVBG0-121" value="" style="endArrow=none;html=1;rounded=0;entryX=0.5;entryY=1;entryDx=0;entryDy=0;" edge="1" parent="1" target="QvkCXpr15zVtPhJupILJ-61">
          <mxGeometry width="50" height="50" relative="1" as="geometry">
            <mxPoint x="-3310" y="320" as="sourcePoint" />
            <mxPoint x="-2800" y="610" as="targetPoint" />
          </mxGeometry>
        </mxCell>
        <mxCell id="hL8D24npAY1kQglWVBG0-122" value="" style="endArrow=none;html=1;rounded=0;" edge="1" parent="1">
          <mxGeometry width="50" height="50" relative="1" as="geometry">
            <mxPoint x="-4230" y="320" as="sourcePoint" />
            <mxPoint x="-2530" y="320" as="targetPoint" />
          </mxGeometry>
        </mxCell>
        <mxCell id="hL8D24npAY1kQglWVBG0-123" value="" style="group" vertex="1" connectable="0" parent="1">
          <mxGeometry x="-4240" y="320" width="230" height="80" as="geometry" />
        </mxCell>
        <mxCell id="hL8D24npAY1kQglWVBG0-124" value="" style="endArrow=none;html=1;rounded=0;strokeWidth=2;" edge="1" parent="hL8D24npAY1kQglWVBG0-123">
          <mxGeometry width="50" height="50" relative="1" as="geometry">
            <mxPoint x="9.710000000000036" y="80" as="sourcePoint" />
            <mxPoint x="9.710000000000036" as="targetPoint" />
          </mxGeometry>
        </mxCell>
        <mxCell id="hL8D24npAY1kQglWVBG0-125" value="" style="endArrow=none;html=1;rounded=0;strokeWidth=2;" edge="1" parent="hL8D24npAY1kQglWVBG0-123">
          <mxGeometry width="50" height="50" relative="1" as="geometry">
            <mxPoint y="40" as="sourcePoint" />
            <mxPoint x="20" y="40" as="targetPoint" />
          </mxGeometry>
        </mxCell>
        <mxCell id="hL8D24npAY1kQglWVBG0-126" value="&lt;font style=&quot;font-size: 18px;&quot;&gt;n_capteur == 0&lt;/font&gt;&lt;div&gt;&lt;font style=&quot;font-size: 18px;&quot;&gt;&lt;span style=&quot;text-align: center;&quot;&gt;lag_IRQ_pluie = 1&lt;/span&gt;&lt;br&gt;&lt;/font&gt;&lt;/div&gt;" style="text;html=1;align=left;verticalAlign=middle;whiteSpace=wrap;rounded=0;" vertex="1" parent="hL8D24npAY1kQglWVBG0-123">
          <mxGeometry x="20" y="20" width="210" height="40" as="geometry" />
        </mxCell>
        <mxCell id="hL8D24npAY1kQglWVBG0-127" value="" style="group" vertex="1" connectable="0" parent="1">
          <mxGeometry x="-4270" y="400" width="120" height="80" as="geometry" />
        </mxCell>
        <mxCell id="hL8D24npAY1kQglWVBG0-128" value="" style="whiteSpace=wrap;html=1;aspect=fixed;fillColor=none;" vertex="1" parent="hL8D24npAY1kQglWVBG0-127">
          <mxGeometry width="80" height="80" as="geometry" />
        </mxCell>
        <mxCell id="hL8D24npAY1kQglWVBG0-129" value="&lt;font style=&quot;font-size: 29px;&quot;&gt;0&lt;/font&gt;" style="text;html=1;align=center;verticalAlign=middle;whiteSpace=wrap;rounded=0;" vertex="1" parent="hL8D24npAY1kQglWVBG0-127">
          <mxGeometry width="80" height="80" as="geometry" />
        </mxCell>
        <mxCell id="hL8D24npAY1kQglWVBG0-130" value="" style="endArrow=none;html=1;rounded=0;exitX=1;exitY=0.5;exitDx=0;exitDy=0;strokeWidth=2;" edge="1" parent="hL8D24npAY1kQglWVBG0-127" source="hL8D24npAY1kQglWVBG0-129">
          <mxGeometry width="50" height="50" relative="1" as="geometry">
            <mxPoint x="110" y="60" as="sourcePoint" />
            <mxPoint x="120" y="40" as="targetPoint" />
          </mxGeometry>
        </mxCell>
        <mxCell id="hL8D24npAY1kQglWVBG0-131" value="" style="group" vertex="1" connectable="0" parent="1">
          <mxGeometry x="-4150" y="390" width="170" height="180" as="geometry" />
        </mxCell>
        <mxCell id="hL8D24npAY1kQglWVBG0-132" value="acquisition de la pluie&lt;br&gt;enregistrement de la pluie&lt;div&gt;&lt;span style=&quot;font-size: 18px; text-align: left;&quot;&gt;n_capteur = 1&lt;/span&gt;&lt;br&gt;&lt;/div&gt;" style="rounded=0;whiteSpace=wrap;html=1;fillColor=none;" vertex="1" parent="hL8D24npAY1kQglWVBG0-131">
          <mxGeometry y="20" width="170" height="80" as="geometry" />
        </mxCell>
        <mxCell id="hL8D24npAY1kQglWVBG0-133" value="" style="endArrow=block;html=1;rounded=0;exitX=0;exitY=1;exitDx=0;exitDy=0;endFill=1;strokeWidth=2;" edge="1" parent="hL8D24npAY1kQglWVBG0-131" source="hL8D24npAY1kQglWVBG0-132">
          <mxGeometry width="50" height="50" relative="1" as="geometry">
            <mxPoint x="-95" y="85" as="sourcePoint" />
            <mxPoint as="targetPoint" />
          </mxGeometry>
        </mxCell>
        <mxCell id="hL8D24npAY1kQglWVBG0-261" value="" style="group" vertex="1" connectable="0" parent="hL8D24npAY1kQglWVBG0-131">
          <mxGeometry x="-90" y="100" width="130" height="80" as="geometry" />
        </mxCell>
        <mxCell id="hL8D24npAY1kQglWVBG0-262" value="" style="endArrow=none;html=1;rounded=0;strokeWidth=2;" edge="1" parent="hL8D24npAY1kQglWVBG0-261">
          <mxGeometry width="50" height="50" relative="1" as="geometry">
            <mxPoint x="9.710000000000036" y="80" as="sourcePoint" />
            <mxPoint x="9.710000000000036" as="targetPoint" />
          </mxGeometry>
        </mxCell>
        <mxCell id="hL8D24npAY1kQglWVBG0-263" value="" style="endArrow=none;html=1;rounded=0;strokeWidth=2;" edge="1" parent="hL8D24npAY1kQglWVBG0-261">
          <mxGeometry width="50" height="50" relative="1" as="geometry">
            <mxPoint y="40" as="sourcePoint" />
            <mxPoint x="20" y="40" as="targetPoint" />
          </mxGeometry>
        </mxCell>
        <mxCell id="hL8D24npAY1kQglWVBG0-264" value="&lt;font style=&quot;font-size: 18px;&quot;&gt;1&lt;/font&gt;" style="text;html=1;align=left;verticalAlign=middle;whiteSpace=wrap;rounded=0;" vertex="1" parent="hL8D24npAY1kQglWVBG0-261">
          <mxGeometry x="20" y="20" width="110" height="40" as="geometry" />
        </mxCell>
        <mxCell id="hL8D24npAY1kQglWVBG0-151" value="" style="group" vertex="1" connectable="0" parent="1">
          <mxGeometry x="-3920" y="320" width="230" height="80" as="geometry" />
        </mxCell>
        <mxCell id="hL8D24npAY1kQglWVBG0-152" value="" style="endArrow=none;html=1;rounded=0;strokeWidth=2;" edge="1" parent="hL8D24npAY1kQglWVBG0-151">
          <mxGeometry width="50" height="50" relative="1" as="geometry">
            <mxPoint x="9.710000000000036" y="80" as="sourcePoint" />
            <mxPoint x="9.710000000000036" as="targetPoint" />
          </mxGeometry>
        </mxCell>
        <mxCell id="hL8D24npAY1kQglWVBG0-153" value="" style="endArrow=none;html=1;rounded=0;strokeWidth=2;" edge="1" parent="hL8D24npAY1kQglWVBG0-151">
          <mxGeometry width="50" height="50" relative="1" as="geometry">
            <mxPoint y="40" as="sourcePoint" />
            <mxPoint x="20" y="40" as="targetPoint" />
          </mxGeometry>
        </mxCell>
        <mxCell id="hL8D24npAY1kQglWVBG0-154" value="&lt;font style=&quot;font-size: 18px;&quot;&gt;n_capteur == 0&lt;/font&gt;&lt;div&gt;&lt;font style=&quot;font-size: 18px;&quot;&gt;&lt;span style=&quot;text-align: center;&quot;&gt;lag_IRQ_pluie = 0&lt;/span&gt;&lt;br&gt;&lt;/font&gt;&lt;/div&gt;" style="text;html=1;align=left;verticalAlign=middle;whiteSpace=wrap;rounded=0;" vertex="1" parent="hL8D24npAY1kQglWVBG0-151">
          <mxGeometry x="20" y="20" width="210" height="40" as="geometry" />
        </mxCell>
        <mxCell id="hL8D24npAY1kQglWVBG0-155" value="" style="group" vertex="1" connectable="0" parent="1">
          <mxGeometry x="-3950" y="400" width="120" height="80" as="geometry" />
        </mxCell>
        <mxCell id="hL8D24npAY1kQglWVBG0-156" value="" style="whiteSpace=wrap;html=1;aspect=fixed;fillColor=none;" vertex="1" parent="hL8D24npAY1kQglWVBG0-155">
          <mxGeometry width="80" height="80" as="geometry" />
        </mxCell>
        <mxCell id="hL8D24npAY1kQglWVBG0-157" value="&lt;font style=&quot;font-size: 29px;&quot;&gt;0&lt;/font&gt;" style="text;html=1;align=center;verticalAlign=middle;whiteSpace=wrap;rounded=0;" vertex="1" parent="hL8D24npAY1kQglWVBG0-155">
          <mxGeometry width="80" height="80" as="geometry" />
        </mxCell>
        <mxCell id="hL8D24npAY1kQglWVBG0-158" value="" style="endArrow=none;html=1;rounded=0;exitX=1;exitY=0.5;exitDx=0;exitDy=0;strokeWidth=2;" edge="1" parent="hL8D24npAY1kQglWVBG0-155" source="hL8D24npAY1kQglWVBG0-157">
          <mxGeometry width="50" height="50" relative="1" as="geometry">
            <mxPoint x="110" y="60" as="sourcePoint" />
            <mxPoint x="120" y="40" as="targetPoint" />
          </mxGeometry>
        </mxCell>
        <mxCell id="hL8D24npAY1kQglWVBG0-159" value="" style="group" vertex="1" connectable="0" parent="1">
          <mxGeometry x="-3830" y="390" width="170" height="100" as="geometry" />
        </mxCell>
        <mxCell id="hL8D24npAY1kQglWVBG0-160" value="acquisition de la pluie&lt;br&gt;enregistrement de la pluie&lt;div&gt;&lt;span style=&quot;font-size: 18px; text-align: left;&quot;&gt;n_capteur = 1&lt;/span&gt;&lt;br&gt;&lt;/div&gt;" style="rounded=0;whiteSpace=wrap;html=1;fillColor=none;" vertex="1" parent="hL8D24npAY1kQglWVBG0-159">
          <mxGeometry y="20" width="170" height="80" as="geometry" />
        </mxCell>
        <mxCell id="hL8D24npAY1kQglWVBG0-161" value="" style="endArrow=block;html=1;rounded=0;exitX=0;exitY=1;exitDx=0;exitDy=0;endFill=1;strokeWidth=2;" edge="1" parent="hL8D24npAY1kQglWVBG0-159" source="hL8D24npAY1kQglWVBG0-160">
          <mxGeometry width="50" height="50" relative="1" as="geometry">
            <mxPoint x="-95" y="85" as="sourcePoint" />
            <mxPoint as="targetPoint" />
          </mxGeometry>
        </mxCell>
        <mxCell id="hL8D24npAY1kQglWVBG0-162" value="" style="group" vertex="1" connectable="0" parent="1">
          <mxGeometry x="-3590" y="320" width="230" height="80" as="geometry" />
        </mxCell>
        <mxCell id="hL8D24npAY1kQglWVBG0-163" value="" style="endArrow=none;html=1;rounded=0;strokeWidth=2;" edge="1" parent="hL8D24npAY1kQglWVBG0-162">
          <mxGeometry width="50" height="50" relative="1" as="geometry">
            <mxPoint x="9.710000000000036" y="80" as="sourcePoint" />
            <mxPoint x="9.710000000000036" as="targetPoint" />
          </mxGeometry>
        </mxCell>
        <mxCell id="hL8D24npAY1kQglWVBG0-164" value="" style="endArrow=none;html=1;rounded=0;strokeWidth=2;" edge="1" parent="hL8D24npAY1kQglWVBG0-162">
          <mxGeometry width="50" height="50" relative="1" as="geometry">
            <mxPoint y="40" as="sourcePoint" />
            <mxPoint x="20" y="40" as="targetPoint" />
          </mxGeometry>
        </mxCell>
        <mxCell id="hL8D24npAY1kQglWVBG0-165" value="&lt;font style=&quot;font-size: 18px;&quot;&gt;n_capteur == 1&lt;/font&gt;&lt;div&gt;&lt;font style=&quot;font-size: 18px;&quot;&gt;&lt;span style=&quot;text-align: center;&quot;&gt;lag_IRQ_vent = 1&lt;/span&gt;&lt;br&gt;&lt;/font&gt;&lt;/div&gt;" style="text;html=1;align=left;verticalAlign=middle;whiteSpace=wrap;rounded=0;" vertex="1" parent="hL8D24npAY1kQglWVBG0-162">
          <mxGeometry x="20" y="20" width="210" height="40" as="geometry" />
        </mxCell>
        <mxCell id="hL8D24npAY1kQglWVBG0-166" value="" style="group" vertex="1" connectable="0" parent="1">
          <mxGeometry x="-3620" y="400" width="120" height="80" as="geometry" />
        </mxCell>
        <mxCell id="hL8D24npAY1kQglWVBG0-167" value="" style="whiteSpace=wrap;html=1;aspect=fixed;fillColor=none;" vertex="1" parent="hL8D24npAY1kQglWVBG0-166">
          <mxGeometry width="80" height="80" as="geometry" />
        </mxCell>
        <mxCell id="hL8D24npAY1kQglWVBG0-168" value="&lt;font style=&quot;font-size: 29px;&quot;&gt;0&lt;/font&gt;" style="text;html=1;align=center;verticalAlign=middle;whiteSpace=wrap;rounded=0;" vertex="1" parent="hL8D24npAY1kQglWVBG0-166">
          <mxGeometry width="80" height="80" as="geometry" />
        </mxCell>
        <mxCell id="hL8D24npAY1kQglWVBG0-169" value="" style="endArrow=none;html=1;rounded=0;exitX=1;exitY=0.5;exitDx=0;exitDy=0;strokeWidth=2;" edge="1" parent="hL8D24npAY1kQglWVBG0-166" source="hL8D24npAY1kQglWVBG0-168">
          <mxGeometry width="50" height="50" relative="1" as="geometry">
            <mxPoint x="110" y="60" as="sourcePoint" />
            <mxPoint x="120" y="40" as="targetPoint" />
          </mxGeometry>
        </mxCell>
        <mxCell id="hL8D24npAY1kQglWVBG0-170" value="" style="group" vertex="1" connectable="0" parent="1">
          <mxGeometry x="-3500" y="390" width="170" height="100" as="geometry" />
        </mxCell>
        <mxCell id="hL8D24npAY1kQglWVBG0-171" value="acquisition de la force vent&lt;br&gt;enregistrement de la force vent&lt;div&gt;&lt;span style=&quot;font-size: 18px; text-align: left;&quot;&gt;n_capteur = 2&lt;/span&gt;&lt;br&gt;&lt;/div&gt;" style="rounded=0;whiteSpace=wrap;html=1;fillColor=none;" vertex="1" parent="hL8D24npAY1kQglWVBG0-170">
          <mxGeometry y="20" width="170" height="80" as="geometry" />
        </mxCell>
        <mxCell id="hL8D24npAY1kQglWVBG0-172" value="" style="endArrow=block;html=1;rounded=0;exitX=0;exitY=1;exitDx=0;exitDy=0;endFill=1;strokeWidth=2;" edge="1" parent="hL8D24npAY1kQglWVBG0-170" source="hL8D24npAY1kQglWVBG0-171">
          <mxGeometry width="50" height="50" relative="1" as="geometry">
            <mxPoint x="-95" y="85" as="sourcePoint" />
            <mxPoint as="targetPoint" />
          </mxGeometry>
        </mxCell>
        <mxCell id="hL8D24npAY1kQglWVBG0-182" value="" style="group" vertex="1" connectable="0" parent="1">
          <mxGeometry x="-3270" y="320" width="230" height="80" as="geometry" />
        </mxCell>
        <mxCell id="hL8D24npAY1kQglWVBG0-183" value="" style="endArrow=none;html=1;rounded=0;strokeWidth=2;" edge="1" parent="hL8D24npAY1kQglWVBG0-182">
          <mxGeometry width="50" height="50" relative="1" as="geometry">
            <mxPoint x="9.710000000000036" y="80" as="sourcePoint" />
            <mxPoint x="9.710000000000036" as="targetPoint" />
          </mxGeometry>
        </mxCell>
        <mxCell id="hL8D24npAY1kQglWVBG0-184" value="" style="endArrow=none;html=1;rounded=0;strokeWidth=2;" edge="1" parent="hL8D24npAY1kQglWVBG0-182">
          <mxGeometry width="50" height="50" relative="1" as="geometry">
            <mxPoint y="40" as="sourcePoint" />
            <mxPoint x="20" y="40" as="targetPoint" />
          </mxGeometry>
        </mxCell>
        <mxCell id="hL8D24npAY1kQglWVBG0-185" value="&lt;font style=&quot;font-size: 18px;&quot;&gt;n_capteur == 2&lt;/font&gt;&lt;div&gt;&lt;font style=&quot;font-size: 18px;&quot;&gt;&lt;span style=&quot;text-align: center;&quot;&gt;lag_IRQ_vent = 1&lt;/span&gt;&lt;br&gt;&lt;/font&gt;&lt;/div&gt;" style="text;html=1;align=left;verticalAlign=middle;whiteSpace=wrap;rounded=0;" vertex="1" parent="hL8D24npAY1kQglWVBG0-182">
          <mxGeometry x="20" y="20" width="210" height="40" as="geometry" />
        </mxCell>
        <mxCell id="hL8D24npAY1kQglWVBG0-186" value="" style="group" vertex="1" connectable="0" parent="1">
          <mxGeometry x="-3300" y="400" width="120" height="80" as="geometry" />
        </mxCell>
        <mxCell id="hL8D24npAY1kQglWVBG0-187" value="" style="whiteSpace=wrap;html=1;aspect=fixed;fillColor=none;" vertex="1" parent="hL8D24npAY1kQglWVBG0-186">
          <mxGeometry width="80" height="80" as="geometry" />
        </mxCell>
        <mxCell id="hL8D24npAY1kQglWVBG0-188" value="&lt;font style=&quot;font-size: 29px;&quot;&gt;0&lt;/font&gt;" style="text;html=1;align=center;verticalAlign=middle;whiteSpace=wrap;rounded=0;" vertex="1" parent="hL8D24npAY1kQglWVBG0-186">
          <mxGeometry width="80" height="80" as="geometry" />
        </mxCell>
        <mxCell id="hL8D24npAY1kQglWVBG0-189" value="" style="endArrow=none;html=1;rounded=0;exitX=1;exitY=0.5;exitDx=0;exitDy=0;strokeWidth=2;" edge="1" parent="hL8D24npAY1kQglWVBG0-186" source="hL8D24npAY1kQglWVBG0-188">
          <mxGeometry width="50" height="50" relative="1" as="geometry">
            <mxPoint x="110" y="60" as="sourcePoint" />
            <mxPoint x="120" y="40" as="targetPoint" />
          </mxGeometry>
        </mxCell>
        <mxCell id="hL8D24npAY1kQglWVBG0-190" value="" style="group" vertex="1" connectable="0" parent="1">
          <mxGeometry x="-3180" y="400" width="210" height="180" as="geometry" />
        </mxCell>
        <mxCell id="hL8D24npAY1kQglWVBG0-191" value="acquisition de la direction vent&lt;br&gt;enregistrement de la direction&amp;nbsp;vent&lt;div&gt;&lt;span style=&quot;font-size: 18px; text-align: left;&quot;&gt;n_capteur = 3&lt;/span&gt;&lt;br&gt;&lt;/div&gt;" style="rounded=0;whiteSpace=wrap;html=1;fillColor=none;" vertex="1" parent="hL8D24npAY1kQglWVBG0-190">
          <mxGeometry y="10" width="210" height="80" as="geometry" />
        </mxCell>
        <mxCell id="hL8D24npAY1kQglWVBG0-192" value="" style="endArrow=block;html=1;rounded=0;exitX=0;exitY=1;exitDx=0;exitDy=0;endFill=1;strokeWidth=2;" edge="1" parent="hL8D24npAY1kQglWVBG0-190" source="hL8D24npAY1kQglWVBG0-191">
          <mxGeometry width="50" height="50" relative="1" as="geometry">
            <mxPoint x="-95" y="85" as="sourcePoint" />
            <mxPoint as="targetPoint" />
          </mxGeometry>
        </mxCell>
        <mxCell id="hL8D24npAY1kQglWVBG0-274" value="" style="group" vertex="1" connectable="0" parent="hL8D24npAY1kQglWVBG0-190">
          <mxGeometry x="-90" y="100" width="130" height="80" as="geometry" />
        </mxCell>
        <mxCell id="hL8D24npAY1kQglWVBG0-275" value="" style="endArrow=none;html=1;rounded=0;strokeWidth=2;" edge="1" parent="hL8D24npAY1kQglWVBG0-274">
          <mxGeometry width="50" height="50" relative="1" as="geometry">
            <mxPoint x="9.710000000000036" y="80" as="sourcePoint" />
            <mxPoint x="9.710000000000036" as="targetPoint" />
          </mxGeometry>
        </mxCell>
        <mxCell id="hL8D24npAY1kQglWVBG0-276" value="" style="endArrow=none;html=1;rounded=0;strokeWidth=2;" edge="1" parent="hL8D24npAY1kQglWVBG0-274">
          <mxGeometry width="50" height="50" relative="1" as="geometry">
            <mxPoint y="40" as="sourcePoint" />
            <mxPoint x="20" y="40" as="targetPoint" />
          </mxGeometry>
        </mxCell>
        <mxCell id="hL8D24npAY1kQglWVBG0-277" value="&lt;font style=&quot;font-size: 18px;&quot;&gt;1&lt;/font&gt;" style="text;html=1;align=left;verticalAlign=middle;whiteSpace=wrap;rounded=0;" vertex="1" parent="hL8D24npAY1kQglWVBG0-274">
          <mxGeometry x="20" y="20" width="110" height="40" as="geometry" />
        </mxCell>
        <mxCell id="hL8D24npAY1kQglWVBG0-193" value="" style="group" vertex="1" connectable="0" parent="1">
          <mxGeometry x="-2912" y="330" width="230" height="80" as="geometry" />
        </mxCell>
        <mxCell id="hL8D24npAY1kQglWVBG0-194" value="" style="endArrow=none;html=1;rounded=0;strokeWidth=2;" edge="1" parent="hL8D24npAY1kQglWVBG0-193">
          <mxGeometry width="50" height="50" relative="1" as="geometry">
            <mxPoint x="9.710000000000036" y="80" as="sourcePoint" />
            <mxPoint x="9.710000000000036" as="targetPoint" />
          </mxGeometry>
        </mxCell>
        <mxCell id="hL8D24npAY1kQglWVBG0-195" value="" style="endArrow=none;html=1;rounded=0;strokeWidth=2;" edge="1" parent="hL8D24npAY1kQglWVBG0-193">
          <mxGeometry width="50" height="50" relative="1" as="geometry">
            <mxPoint y="40" as="sourcePoint" />
            <mxPoint x="20" y="40" as="targetPoint" />
          </mxGeometry>
        </mxCell>
        <mxCell id="hL8D24npAY1kQglWVBG0-196" value="&lt;font style=&quot;font-size: 18px;&quot;&gt;n_capteur == 1&lt;/font&gt;&lt;div&gt;&lt;font style=&quot;font-size: 18px;&quot;&gt;&lt;span style=&quot;text-align: center;&quot;&gt;lag_IRQ_vent = 0&lt;/span&gt;&lt;br&gt;&lt;/font&gt;&lt;/div&gt;" style="text;html=1;align=left;verticalAlign=middle;whiteSpace=wrap;rounded=0;" vertex="1" parent="hL8D24npAY1kQglWVBG0-193">
          <mxGeometry x="20" y="20" width="210" height="40" as="geometry" />
        </mxCell>
        <mxCell id="hL8D24npAY1kQglWVBG0-197" value="" style="group" vertex="1" connectable="0" parent="1">
          <mxGeometry x="-2942" y="410" width="120" height="80" as="geometry" />
        </mxCell>
        <mxCell id="hL8D24npAY1kQglWVBG0-198" value="" style="whiteSpace=wrap;html=1;aspect=fixed;fillColor=none;" vertex="1" parent="hL8D24npAY1kQglWVBG0-197">
          <mxGeometry width="80" height="80" as="geometry" />
        </mxCell>
        <mxCell id="hL8D24npAY1kQglWVBG0-199" value="&lt;font style=&quot;font-size: 29px;&quot;&gt;0&lt;/font&gt;" style="text;html=1;align=center;verticalAlign=middle;whiteSpace=wrap;rounded=0;" vertex="1" parent="hL8D24npAY1kQglWVBG0-197">
          <mxGeometry width="80" height="80" as="geometry" />
        </mxCell>
        <mxCell id="hL8D24npAY1kQglWVBG0-200" value="" style="endArrow=none;html=1;rounded=0;exitX=1;exitY=0.5;exitDx=0;exitDy=0;strokeWidth=2;" edge="1" parent="hL8D24npAY1kQglWVBG0-197" source="hL8D24npAY1kQglWVBG0-199">
          <mxGeometry width="50" height="50" relative="1" as="geometry">
            <mxPoint x="110" y="60" as="sourcePoint" />
            <mxPoint x="120" y="40" as="targetPoint" />
          </mxGeometry>
        </mxCell>
        <mxCell id="hL8D24npAY1kQglWVBG0-201" value="" style="group" vertex="1" connectable="0" parent="1">
          <mxGeometry x="-2822" y="400" width="170" height="185" as="geometry" />
        </mxCell>
        <mxCell id="hL8D24npAY1kQglWVBG0-202" value="&lt;div&gt;&lt;span style=&quot;font-size: 18px; text-align: left;&quot;&gt;n_capteur = 3&lt;/span&gt;&lt;br&gt;&lt;/div&gt;" style="rounded=0;whiteSpace=wrap;html=1;fillColor=none;" vertex="1" parent="hL8D24npAY1kQglWVBG0-201">
          <mxGeometry y="20" width="170" height="80" as="geometry" />
        </mxCell>
        <mxCell id="hL8D24npAY1kQglWVBG0-203" value="" style="endArrow=block;html=1;rounded=0;exitX=0;exitY=1;exitDx=0;exitDy=0;endFill=1;strokeWidth=2;" edge="1" parent="hL8D24npAY1kQglWVBG0-201" source="hL8D24npAY1kQglWVBG0-202">
          <mxGeometry width="50" height="50" relative="1" as="geometry">
            <mxPoint x="-95" y="85" as="sourcePoint" />
            <mxPoint as="targetPoint" />
          </mxGeometry>
        </mxCell>
        <mxCell id="hL8D24npAY1kQglWVBG0-278" value="" style="group" vertex="1" connectable="0" parent="hL8D24npAY1kQglWVBG0-201">
          <mxGeometry x="-88" y="105" width="130" height="80" as="geometry" />
        </mxCell>
        <mxCell id="hL8D24npAY1kQglWVBG0-279" value="" style="endArrow=none;html=1;rounded=0;strokeWidth=2;" edge="1" parent="hL8D24npAY1kQglWVBG0-278">
          <mxGeometry width="50" height="50" relative="1" as="geometry">
            <mxPoint x="9.710000000000036" y="80" as="sourcePoint" />
            <mxPoint x="9.710000000000036" as="targetPoint" />
          </mxGeometry>
        </mxCell>
        <mxCell id="hL8D24npAY1kQglWVBG0-280" value="" style="endArrow=none;html=1;rounded=0;strokeWidth=2;" edge="1" parent="hL8D24npAY1kQglWVBG0-278">
          <mxGeometry width="50" height="50" relative="1" as="geometry">
            <mxPoint y="40" as="sourcePoint" />
            <mxPoint x="20" y="40" as="targetPoint" />
          </mxGeometry>
        </mxCell>
        <mxCell id="hL8D24npAY1kQglWVBG0-281" value="&lt;font style=&quot;font-size: 18px;&quot;&gt;1&lt;/font&gt;" style="text;html=1;align=left;verticalAlign=middle;whiteSpace=wrap;rounded=0;" vertex="1" parent="hL8D24npAY1kQglWVBG0-278">
          <mxGeometry x="20" y="20" width="110" height="40" as="geometry" />
        </mxCell>
        <mxCell id="hL8D24npAY1kQglWVBG0-204" value="" style="group" vertex="1" connectable="0" parent="1">
          <mxGeometry x="-2580" y="330" width="230" height="80" as="geometry" />
        </mxCell>
        <mxCell id="hL8D24npAY1kQglWVBG0-205" value="" style="endArrow=none;html=1;rounded=0;strokeWidth=2;" edge="1" parent="hL8D24npAY1kQglWVBG0-204">
          <mxGeometry width="50" height="50" relative="1" as="geometry">
            <mxPoint x="9.710000000000036" y="80" as="sourcePoint" />
            <mxPoint x="9.710000000000036" as="targetPoint" />
          </mxGeometry>
        </mxCell>
        <mxCell id="hL8D24npAY1kQglWVBG0-206" value="" style="endArrow=none;html=1;rounded=0;strokeWidth=2;" edge="1" parent="hL8D24npAY1kQglWVBG0-204">
          <mxGeometry width="50" height="50" relative="1" as="geometry">
            <mxPoint y="40" as="sourcePoint" />
            <mxPoint x="20" y="40" as="targetPoint" />
          </mxGeometry>
        </mxCell>
        <mxCell id="hL8D24npAY1kQglWVBG0-207" value="&lt;font style=&quot;font-size: 18px;&quot;&gt;n_capteur == 3&lt;/font&gt;" style="text;html=1;align=left;verticalAlign=middle;whiteSpace=wrap;rounded=0;" vertex="1" parent="hL8D24npAY1kQglWVBG0-204">
          <mxGeometry x="20" y="20" width="210" height="40" as="geometry" />
        </mxCell>
        <mxCell id="hL8D24npAY1kQglWVBG0-208" value="" style="group" vertex="1" connectable="0" parent="1">
          <mxGeometry x="-2610" y="410" width="120" height="80" as="geometry" />
        </mxCell>
        <mxCell id="hL8D24npAY1kQglWVBG0-209" value="" style="whiteSpace=wrap;html=1;aspect=fixed;fillColor=none;" vertex="1" parent="hL8D24npAY1kQglWVBG0-208">
          <mxGeometry width="80" height="80" as="geometry" />
        </mxCell>
        <mxCell id="hL8D24npAY1kQglWVBG0-210" value="&lt;font style=&quot;font-size: 29px;&quot;&gt;0&lt;/font&gt;" style="text;html=1;align=center;verticalAlign=middle;whiteSpace=wrap;rounded=0;" vertex="1" parent="hL8D24npAY1kQglWVBG0-208">
          <mxGeometry width="80" height="80" as="geometry" />
        </mxCell>
        <mxCell id="hL8D24npAY1kQglWVBG0-211" value="" style="endArrow=none;html=1;rounded=0;exitX=1;exitY=0.5;exitDx=0;exitDy=0;strokeWidth=2;" edge="1" parent="hL8D24npAY1kQglWVBG0-208" source="hL8D24npAY1kQglWVBG0-210">
          <mxGeometry width="50" height="50" relative="1" as="geometry">
            <mxPoint x="110" y="60" as="sourcePoint" />
            <mxPoint x="120" y="40" as="targetPoint" />
          </mxGeometry>
        </mxCell>
        <mxCell id="hL8D24npAY1kQglWVBG0-212" value="" style="group" vertex="1" connectable="0" parent="1">
          <mxGeometry x="-2490" y="410" width="210" height="175" as="geometry" />
        </mxCell>
        <mxCell id="hL8D24npAY1kQglWVBG0-213" value="acquisition du capteur x&lt;br&gt;enregistrement du&amp;nbsp;&amp;nbsp;capteur x&lt;div&gt;&lt;span style=&quot;font-size: 18px; text-align: left;&quot;&gt;n_capteur = w&lt;/span&gt;&lt;br&gt;&lt;/div&gt;" style="rounded=0;whiteSpace=wrap;html=1;fillColor=none;" vertex="1" parent="hL8D24npAY1kQglWVBG0-212">
          <mxGeometry y="10" width="210" height="80" as="geometry" />
        </mxCell>
        <mxCell id="hL8D24npAY1kQglWVBG0-214" value="" style="endArrow=block;html=1;rounded=0;exitX=0;exitY=1;exitDx=0;exitDy=0;endFill=1;strokeWidth=2;" edge="1" parent="hL8D24npAY1kQglWVBG0-212" source="hL8D24npAY1kQglWVBG0-213">
          <mxGeometry width="50" height="50" relative="1" as="geometry">
            <mxPoint x="-95" y="85" as="sourcePoint" />
            <mxPoint as="targetPoint" />
          </mxGeometry>
        </mxCell>
        <mxCell id="hL8D24npAY1kQglWVBG0-282" value="" style="group" vertex="1" connectable="0" parent="hL8D24npAY1kQglWVBG0-212">
          <mxGeometry x="-90" y="95" width="130" height="80" as="geometry" />
        </mxCell>
        <mxCell id="hL8D24npAY1kQglWVBG0-283" value="" style="endArrow=none;html=1;rounded=0;strokeWidth=2;" edge="1" parent="hL8D24npAY1kQglWVBG0-282">
          <mxGeometry width="50" height="50" relative="1" as="geometry">
            <mxPoint x="9.710000000000036" y="80" as="sourcePoint" />
            <mxPoint x="9.710000000000036" as="targetPoint" />
          </mxGeometry>
        </mxCell>
        <mxCell id="hL8D24npAY1kQglWVBG0-284" value="" style="endArrow=none;html=1;rounded=0;strokeWidth=2;" edge="1" parent="hL8D24npAY1kQglWVBG0-282">
          <mxGeometry width="50" height="50" relative="1" as="geometry">
            <mxPoint y="40" as="sourcePoint" />
            <mxPoint x="20" y="40" as="targetPoint" />
          </mxGeometry>
        </mxCell>
        <mxCell id="hL8D24npAY1kQglWVBG0-285" value="&lt;font style=&quot;font-size: 18px;&quot;&gt;1&lt;/font&gt;" style="text;html=1;align=left;verticalAlign=middle;whiteSpace=wrap;rounded=0;" vertex="1" parent="hL8D24npAY1kQglWVBG0-282">
          <mxGeometry x="20" y="20" width="110" height="40" as="geometry" />
        </mxCell>
        <mxCell id="hL8D24npAY1kQglWVBG0-215" value="" style="endArrow=none;dashed=1;html=1;rounded=0;" edge="1" parent="1">
          <mxGeometry width="50" height="50" relative="1" as="geometry">
            <mxPoint x="-2530" y="320" as="sourcePoint" />
            <mxPoint x="-2270" y="320" as="targetPoint" />
          </mxGeometry>
        </mxCell>
        <mxCell id="hL8D24npAY1kQglWVBG0-216" value="" style="endArrow=none;html=1;rounded=0;" edge="1" parent="1">
          <mxGeometry width="50" height="50" relative="1" as="geometry">
            <mxPoint x="-2270" y="320" as="sourcePoint" />
            <mxPoint x="-2060" y="320" as="targetPoint" />
          </mxGeometry>
        </mxCell>
        <mxCell id="hL8D24npAY1kQglWVBG0-249" value="" style="group" vertex="1" connectable="0" parent="1">
          <mxGeometry x="-2220" y="330" width="230" height="80" as="geometry" />
        </mxCell>
        <mxCell id="hL8D24npAY1kQglWVBG0-250" value="" style="endArrow=none;html=1;rounded=0;strokeWidth=2;" edge="1" parent="hL8D24npAY1kQglWVBG0-249">
          <mxGeometry width="50" height="50" relative="1" as="geometry">
            <mxPoint x="9.710000000000036" y="80" as="sourcePoint" />
            <mxPoint x="9.710000000000036" as="targetPoint" />
          </mxGeometry>
        </mxCell>
        <mxCell id="hL8D24npAY1kQglWVBG0-251" value="" style="endArrow=none;html=1;rounded=0;strokeWidth=2;" edge="1" parent="hL8D24npAY1kQglWVBG0-249">
          <mxGeometry width="50" height="50" relative="1" as="geometry">
            <mxPoint y="40" as="sourcePoint" />
            <mxPoint x="20" y="40" as="targetPoint" />
          </mxGeometry>
        </mxCell>
        <mxCell id="hL8D24npAY1kQglWVBG0-252" value="&lt;font style=&quot;font-size: 18px;&quot;&gt;n_capteur == w&lt;/font&gt;" style="text;html=1;align=left;verticalAlign=middle;whiteSpace=wrap;rounded=0;" vertex="1" parent="hL8D24npAY1kQglWVBG0-249">
          <mxGeometry x="20" y="20" width="210" height="40" as="geometry" />
        </mxCell>
        <mxCell id="hL8D24npAY1kQglWVBG0-253" value="" style="group" vertex="1" connectable="0" parent="1">
          <mxGeometry x="-2250" y="410" width="120" height="80" as="geometry" />
        </mxCell>
        <mxCell id="hL8D24npAY1kQglWVBG0-254" value="" style="whiteSpace=wrap;html=1;aspect=fixed;fillColor=none;" vertex="1" parent="hL8D24npAY1kQglWVBG0-253">
          <mxGeometry width="80" height="80" as="geometry" />
        </mxCell>
        <mxCell id="hL8D24npAY1kQglWVBG0-255" value="&lt;font style=&quot;font-size: 29px;&quot;&gt;0&lt;/font&gt;" style="text;html=1;align=center;verticalAlign=middle;whiteSpace=wrap;rounded=0;" vertex="1" parent="hL8D24npAY1kQglWVBG0-253">
          <mxGeometry width="80" height="80" as="geometry" />
        </mxCell>
        <mxCell id="hL8D24npAY1kQglWVBG0-256" value="" style="endArrow=none;html=1;rounded=0;exitX=1;exitY=0.5;exitDx=0;exitDy=0;strokeWidth=2;" edge="1" parent="hL8D24npAY1kQglWVBG0-253" source="hL8D24npAY1kQglWVBG0-255">
          <mxGeometry width="50" height="50" relative="1" as="geometry">
            <mxPoint x="110" y="60" as="sourcePoint" />
            <mxPoint x="120" y="40" as="targetPoint" />
          </mxGeometry>
        </mxCell>
        <mxCell id="hL8D24npAY1kQglWVBG0-257" value="" style="group" vertex="1" connectable="0" parent="1">
          <mxGeometry x="-2130" y="410" width="210" height="180" as="geometry" />
        </mxCell>
        <mxCell id="hL8D24npAY1kQglWVBG0-258" value="acquisition du capteur y&lt;br&gt;enregistrement du&amp;nbsp;&amp;nbsp;capteur y&lt;div&gt;&lt;br&gt;&lt;/div&gt;&lt;div&gt;&lt;br&gt;&lt;/div&gt;&lt;div&gt;&lt;font style=&quot;font-size: 15px;&quot;&gt;&lt;span style=&quot;font-size: 18px; text-align: left;&quot;&gt;time_IRQ_acquisition&amp;nbsp;&lt;/span&gt;&lt;span style=&quot;font-size: 18px; text-align: left;&quot;&gt;= 0&lt;/span&gt;&lt;br&gt;flag_update = 1&lt;br&gt;flag_vent_vref = 1&lt;/font&gt;&lt;div&gt;&lt;span style=&quot;font-size: 15px;&quot;&gt;flag_pluie_verf = 1&lt;/span&gt;&lt;/div&gt;&lt;div&gt;&lt;span style=&quot;font-size: 15px;&quot;&gt;n_capteur = 0&lt;/span&gt;&lt;/div&gt;&lt;/div&gt;" style="rounded=0;whiteSpace=wrap;html=1;fillColor=none;" vertex="1" parent="hL8D24npAY1kQglWVBG0-257">
          <mxGeometry y="10" width="210" height="170" as="geometry" />
        </mxCell>
        <mxCell id="hL8D24npAY1kQglWVBG0-259" value="" style="endArrow=block;html=1;rounded=0;exitX=0;exitY=1;exitDx=0;exitDy=0;endFill=1;strokeWidth=2;" edge="1" parent="hL8D24npAY1kQglWVBG0-257" source="hL8D24npAY1kQglWVBG0-258">
          <mxGeometry width="50" height="50" relative="1" as="geometry">
            <mxPoint x="-95" y="85" as="sourcePoint" />
            <mxPoint as="targetPoint" />
          </mxGeometry>
        </mxCell>
        <mxCell id="hL8D24npAY1kQglWVBG0-286" value="" style="group" vertex="1" connectable="0" parent="hL8D24npAY1kQglWVBG0-257">
          <mxGeometry x="-90" y="100" width="130" height="80" as="geometry" />
        </mxCell>
        <mxCell id="hL8D24npAY1kQglWVBG0-287" value="" style="endArrow=none;html=1;rounded=0;strokeWidth=2;" edge="1" parent="hL8D24npAY1kQglWVBG0-286">
          <mxGeometry width="50" height="50" relative="1" as="geometry">
            <mxPoint x="9.710000000000036" y="80" as="sourcePoint" />
            <mxPoint x="9.710000000000036" as="targetPoint" />
          </mxGeometry>
        </mxCell>
        <mxCell id="hL8D24npAY1kQglWVBG0-288" value="" style="endArrow=none;html=1;rounded=0;strokeWidth=2;" edge="1" parent="hL8D24npAY1kQglWVBG0-286">
          <mxGeometry width="50" height="50" relative="1" as="geometry">
            <mxPoint y="40" as="sourcePoint" />
            <mxPoint x="20" y="40" as="targetPoint" />
          </mxGeometry>
        </mxCell>
        <mxCell id="hL8D24npAY1kQglWVBG0-289" value="&lt;font style=&quot;font-size: 18px;&quot;&gt;1&lt;/font&gt;" style="text;html=1;align=left;verticalAlign=middle;whiteSpace=wrap;rounded=0;" vertex="1" parent="hL8D24npAY1kQglWVBG0-286">
          <mxGeometry x="20" y="20" width="110" height="40" as="geometry" />
        </mxCell>
        <mxCell id="hL8D24npAY1kQglWVBG0-265" value="" style="group" vertex="1" connectable="0" parent="1">
          <mxGeometry x="-3920" y="490" width="130" height="80" as="geometry" />
        </mxCell>
        <mxCell id="hL8D24npAY1kQglWVBG0-266" value="" style="endArrow=none;html=1;rounded=0;strokeWidth=2;" edge="1" parent="hL8D24npAY1kQglWVBG0-265">
          <mxGeometry width="50" height="50" relative="1" as="geometry">
            <mxPoint x="9.710000000000036" y="80" as="sourcePoint" />
            <mxPoint x="9.710000000000036" as="targetPoint" />
          </mxGeometry>
        </mxCell>
        <mxCell id="hL8D24npAY1kQglWVBG0-267" value="" style="endArrow=none;html=1;rounded=0;strokeWidth=2;" edge="1" parent="hL8D24npAY1kQglWVBG0-265">
          <mxGeometry width="50" height="50" relative="1" as="geometry">
            <mxPoint y="40" as="sourcePoint" />
            <mxPoint x="20" y="40" as="targetPoint" />
          </mxGeometry>
        </mxCell>
        <mxCell id="hL8D24npAY1kQglWVBG0-268" value="&lt;font style=&quot;font-size: 18px;&quot;&gt;1&lt;/font&gt;" style="text;html=1;align=left;verticalAlign=middle;whiteSpace=wrap;rounded=0;" vertex="1" parent="hL8D24npAY1kQglWVBG0-265">
          <mxGeometry x="20" y="20" width="110" height="40" as="geometry" />
        </mxCell>
        <mxCell id="hL8D24npAY1kQglWVBG0-269" value="" style="group" vertex="1" connectable="0" parent="1">
          <mxGeometry x="-3580" y="490" width="130" height="80" as="geometry" />
        </mxCell>
        <mxCell id="hL8D24npAY1kQglWVBG0-270" value="" style="endArrow=none;html=1;rounded=0;strokeWidth=2;" edge="1" parent="hL8D24npAY1kQglWVBG0-269">
          <mxGeometry width="50" height="50" relative="1" as="geometry">
            <mxPoint x="9.710000000000036" y="80" as="sourcePoint" />
            <mxPoint x="9.710000000000036" as="targetPoint" />
          </mxGeometry>
        </mxCell>
        <mxCell id="hL8D24npAY1kQglWVBG0-271" value="" style="endArrow=none;html=1;rounded=0;strokeWidth=2;" edge="1" parent="hL8D24npAY1kQglWVBG0-269">
          <mxGeometry width="50" height="50" relative="1" as="geometry">
            <mxPoint y="40" as="sourcePoint" />
            <mxPoint x="20" y="40" as="targetPoint" />
          </mxGeometry>
        </mxCell>
        <mxCell id="hL8D24npAY1kQglWVBG0-272" value="&lt;font style=&quot;font-size: 18px;&quot;&gt;1&lt;/font&gt;" style="text;html=1;align=left;verticalAlign=middle;whiteSpace=wrap;rounded=0;" vertex="1" parent="hL8D24npAY1kQglWVBG0-269">
          <mxGeometry x="20" y="20" width="110" height="40" as="geometry" />
        </mxCell>
        <mxCell id="hL8D24npAY1kQglWVBG0-290" value="" style="endArrow=none;html=1;rounded=0;" edge="1" parent="1">
          <mxGeometry width="50" height="50" relative="1" as="geometry">
            <mxPoint x="-4230" y="570" as="sourcePoint" />
            <mxPoint x="-2230" y="570" as="targetPoint" />
          </mxGeometry>
        </mxCell>
        <mxCell id="hL8D24npAY1kQglWVBG0-291" value="" style="endArrow=none;html=1;rounded=0;" edge="1" parent="1">
          <mxGeometry width="50" height="50" relative="1" as="geometry">
            <mxPoint x="-3320" y="650" as="sourcePoint" />
            <mxPoint x="-3320" y="570" as="targetPoint" />
          </mxGeometry>
        </mxCell>
        <mxCell id="hL8D24npAY1kQglWVBG0-300" value="" style="group" vertex="1" connectable="0" parent="1">
          <mxGeometry x="1910" y="520" width="270" height="160" as="geometry" />
        </mxCell>
        <mxCell id="hL8D24npAY1kQglWVBG0-301" value="" style="endArrow=none;html=1;rounded=0;strokeWidth=2;" edge="1" parent="hL8D24npAY1kQglWVBG0-300">
          <mxGeometry width="50" height="50" relative="1" as="geometry">
            <mxPoint x="13.708235294117701" y="160" as="sourcePoint" />
            <mxPoint x="13.708235294117701" as="targetPoint" />
          </mxGeometry>
        </mxCell>
        <mxCell id="hL8D24npAY1kQglWVBG0-302" value="" style="endArrow=none;html=1;rounded=0;strokeWidth=2;" edge="1" parent="hL8D24npAY1kQglWVBG0-300">
          <mxGeometry width="50" height="50" relative="1" as="geometry">
            <mxPoint y="80" as="sourcePoint" />
            <mxPoint x="28.23529411764706" y="80" as="targetPoint" />
          </mxGeometry>
        </mxCell>
        <mxCell id="hL8D24npAY1kQglWVBG0-303" value="&lt;font style=&quot;font-size: 18px;&quot;&gt;time_IRQ_acquisition&amp;nbsp;== 0&lt;/font&gt;&lt;div style=&quot;text-align: center;&quot;&gt;&lt;font style=&quot;font-size: 18px;&quot;&gt;flag_update == 0&lt;br&gt;flag_page_change == 0&lt;/font&gt;&lt;/div&gt;&lt;div style=&quot;text-align: center;&quot;&gt;&lt;font style=&quot;font-size: 18px;&quot;&gt;&lt;span style=&quot;font-size: 15px;&quot;&gt;flag_pluie_verf == 0&lt;/span&gt;&lt;/font&gt;&lt;/div&gt;&lt;div style=&quot;text-align: center;&quot;&gt;&lt;font style=&quot;font-size: 18px;&quot;&gt;&lt;span style=&quot;font-size: 15px;&quot;&gt;flag_vent_verf == 0&lt;/span&gt;&lt;span style=&quot;font-size: 15px;&quot;&gt;&lt;br&gt;&lt;/span&gt;&lt;/font&gt;&lt;/div&gt;&lt;div style=&quot;text-align: center;&quot;&gt;&lt;font style=&quot;font-size: 18px;&quot;&gt;&lt;span style=&quot;background-color: initial;&quot;&gt;flag_IRQ_sliep&amp;nbsp;&lt;/span&gt;== 1&lt;/font&gt;&lt;/div&gt;&lt;div style=&quot;text-align: center;&quot;&gt;&lt;span style=&quot;color: rgba(0, 0, 0, 0); font-family: monospace; font-size: 0px; text-align: start; text-wrap: nowrap;&quot;&gt;%3CmxGraphModel%3E%3Croot%3E%3CmxCell%20id%3D%220%22%2F%3E%3CmxCell%20id%3D%221%22%20parent%3D%220%22%2F%3E%3CmxCell%20id%3D%222%22%20value%3D%22%22%20style%3D%22group%22%20vertex%3D%221%22%20connectable%3D%220%22%20parent%3D%221%22%3E%3CmxGeometry%20x%3D%22850%22%20y%3D%22520%22%20width%3D%22240%22%20height%3D%22160%22%20as%3D%22geometry%22%2F%3E%3C%2FmxCell%3E%3CmxCell%20id%3D%223%22%20value%3D%22%22%20style%3D%22endArrow%3Dnone%3Bhtml%3D1%3Brounded%3D0%3BstrokeWidth%3D2%3B%22%20edge%3D%221%22%20parent%3D%222%22%3E%3CmxGeometry%20width%3D%2250%22%20height%3D%2250%22%20relative%3D%221%22%20as%3D%22geometry%22%3E%3CmxPoint%20x%3D%2213.708235294117701%22%20y%3D%22160%22%20as%3D%22sourcePoint%22%2F%3E%3CmxPoint%20x%3D%2213.708235294117701%22%20as%3D%22targetPoint%22%2F%3E%3C%2FmxGeometry%3E%3C%2FmxCell%3E%3CmxCell%20id%3D%224%22%20value%3D%22%22%20style%3D%22endArrow%3Dnone%3Bhtml%3D1%3Brounded%3D0%3BstrokeWidth%3D2%3B%22%20edge%3D%221%22%20parent%3D%222%22%3E%3CmxGeometry%20width%3D%2250%22%20height%3D%2250%22%20relative%3D%221%22%20as%3D%22geometry%22%3E%3CmxPoint%20y%3D%2280%22%20as%3D%22sourcePoint%22%2F%3E%3CmxPoint%20x%3D%2228.23529411764706%22%20y%3D%2280%22%20as%3D%22targetPoint%22%2F%3E%3C%2FmxGeometry%3E%3C%2FmxCell%3E%3CmxCell%20id%3D%225%22%20value%3D%22%26lt%3Bfont%20style%3D%26quot%3Bfont-size%3A%2018px%3B%26quot%3B%26gt%3Btime_acquisition%20%3D%3D%200%26lt%3B%2Ffont%26gt%3B%26lt%3Bdiv%20style%3D%26quot%3Btext-align%3A%20center%3B%26quot%3B%26gt%3B%26lt%3Bfont%20style%3D%26quot%3Bfont-size%3A%2018px%3B%26quot%3B%26gt%3Bflag_update%20%3D%3D%200%26lt%3Bbr%26gt%3Bflag_page_change%20%3D%3D%201%26lt%3B%2Ffont%26gt%3B%26lt%3B%2Fdiv%26gt%3B%22%20style%3D%22text%3Bhtml%3D1%3Balign%3Dleft%3BverticalAlign%3Dmiddle%3BwhiteSpace%3Dwrap%3Brounded%3D0%3B%22%20vertex%3D%221%22%20parent%3D%222%22%3E%3CmxGeometry%20x%3D%2228.23529411764706%22%20y%3D%2240%22%20width%3D%22211.76470588235298%22%20height%3D%2280%22%20as%3D%22geometry%22%2F%3E%3C%2FmxCell%3E%3C%2Froot%3E%3C%2FmxGraphModel%3Eflag_puie&lt;/span&gt;&lt;br&gt;&lt;/div&gt;" style="text;html=1;align=left;verticalAlign=middle;whiteSpace=wrap;rounded=0;" vertex="1" parent="hL8D24npAY1kQglWVBG0-300">
          <mxGeometry x="28.24" width="241.76" height="150" as="geometry" />
        </mxCell>
        <mxCell id="hL8D24npAY1kQglWVBG0-304" value="" style="group" vertex="1" connectable="0" parent="1">
          <mxGeometry x="1890" y="680" width="120" height="80" as="geometry" />
        </mxCell>
        <mxCell id="hL8D24npAY1kQglWVBG0-305" value="" style="whiteSpace=wrap;html=1;aspect=fixed;fillColor=none;" vertex="1" parent="hL8D24npAY1kQglWVBG0-304">
          <mxGeometry width="80" height="80" as="geometry" />
        </mxCell>
        <mxCell id="hL8D24npAY1kQglWVBG0-306" value="&lt;font style=&quot;font-size: 29px;&quot;&gt;0&lt;/font&gt;" style="text;html=1;align=center;verticalAlign=middle;whiteSpace=wrap;rounded=0;" vertex="1" parent="hL8D24npAY1kQglWVBG0-304">
          <mxGeometry width="80" height="80" as="geometry" />
        </mxCell>
        <mxCell id="hL8D24npAY1kQglWVBG0-307" value="" style="endArrow=none;html=1;rounded=0;exitX=1;exitY=0.5;exitDx=0;exitDy=0;strokeWidth=2;" edge="1" parent="hL8D24npAY1kQglWVBG0-304" source="hL8D24npAY1kQglWVBG0-306">
          <mxGeometry width="50" height="50" relative="1" as="geometry">
            <mxPoint x="110" y="60" as="sourcePoint" />
            <mxPoint x="120" y="40" as="targetPoint" />
          </mxGeometry>
        </mxCell>
        <mxCell id="hL8D24npAY1kQglWVBG0-308" value="" style="group" vertex="1" connectable="0" parent="1">
          <mxGeometry x="2010" y="670" width="130" height="170" as="geometry" />
        </mxCell>
        <mxCell id="hL8D24npAY1kQglWVBG0-309" value="Metter le processeurs en mode sommeil" style="rounded=0;whiteSpace=wrap;html=1;fillColor=none;" vertex="1" parent="hL8D24npAY1kQglWVBG0-308">
          <mxGeometry y="20" width="120" height="80" as="geometry" />
        </mxCell>
        <mxCell id="hL8D24npAY1kQglWVBG0-310" value="" style="endArrow=block;html=1;rounded=0;exitX=0;exitY=1;exitDx=0;exitDy=0;endFill=1;strokeWidth=2;" edge="1" parent="hL8D24npAY1kQglWVBG0-308" source="hL8D24npAY1kQglWVBG0-309">
          <mxGeometry width="50" height="50" relative="1" as="geometry">
            <mxPoint x="-95" y="85" as="sourcePoint" />
            <mxPoint as="targetPoint" />
          </mxGeometry>
        </mxCell>
        <mxCell id="hL8D24npAY1kQglWVBG0-311" value="" style="group" vertex="1" connectable="0" parent="hL8D24npAY1kQglWVBG0-308">
          <mxGeometry x="-90" y="90" width="180" height="80" as="geometry" />
        </mxCell>
        <mxCell id="hL8D24npAY1kQglWVBG0-312" value="" style="endArrow=none;html=1;rounded=0;strokeWidth=2;" edge="1" parent="hL8D24npAY1kQglWVBG0-311">
          <mxGeometry width="50" height="50" relative="1" as="geometry">
            <mxPoint x="9.710000000000036" y="80" as="sourcePoint" />
            <mxPoint x="9.710000000000036" as="targetPoint" />
          </mxGeometry>
        </mxCell>
        <mxCell id="hL8D24npAY1kQglWVBG0-313" value="" style="endArrow=none;html=1;rounded=0;strokeWidth=2;" edge="1" parent="hL8D24npAY1kQglWVBG0-311">
          <mxGeometry width="50" height="50" relative="1" as="geometry">
            <mxPoint y="40" as="sourcePoint" />
            <mxPoint x="20" y="40" as="targetPoint" />
          </mxGeometry>
        </mxCell>
        <mxCell id="hL8D24npAY1kQglWVBG0-314" value="&lt;font style=&quot;font-size: 18px;&quot;&gt;réveller par IRQ&lt;/font&gt;" style="text;html=1;align=left;verticalAlign=middle;whiteSpace=wrap;rounded=0;" vertex="1" parent="hL8D24npAY1kQglWVBG0-311">
          <mxGeometry x="20" y="20" width="160" height="40" as="geometry" />
        </mxCell>
        <mxCell id="hL8D24npAY1kQglWVBG0-315" value="" style="endArrow=none;html=1;rounded=0;" edge="1" parent="1">
          <mxGeometry width="50" height="50" relative="1" as="geometry">
            <mxPoint x="-30" y="840" as="sourcePoint" />
            <mxPoint x="1950" y="840" as="targetPoint" />
          </mxGeometry>
        </mxCell>
        <mxCell id="hL8D24npAY1kQglWVBG0-316" value="" style="endArrow=classic;html=1;rounded=0;" edge="1" parent="1">
          <mxGeometry width="50" height="50" relative="1" as="geometry">
            <mxPoint x="-30" y="840" as="sourcePoint" />
            <mxPoint x="-30" y="580" as="targetPoint" />
          </mxGeometry>
        </mxCell>
        <mxCell id="hL8D24npAY1kQglWVBG0-317" value="" style="endArrow=none;html=1;rounded=0;" edge="1" parent="1">
          <mxGeometry width="50" height="50" relative="1" as="geometry">
            <mxPoint x="-30" y="580" as="sourcePoint" />
            <mxPoint x="-30" y="290" as="targetPoint" />
          </mxGeometry>
        </mxCell>
        <mxCell id="hL8D24npAY1kQglWVBG0-318" value="" style="group" vertex="1" connectable="0" parent="1">
          <mxGeometry x="190" y="335" width="120" height="80" as="geometry" />
        </mxCell>
        <mxCell id="hL8D24npAY1kQglWVBG0-319" value="" style="whiteSpace=wrap;html=1;aspect=fixed;fillColor=none;" vertex="1" parent="hL8D24npAY1kQglWVBG0-318">
          <mxGeometry width="80" height="80" as="geometry" />
        </mxCell>
        <mxCell id="hL8D24npAY1kQglWVBG0-320" value="&lt;font style=&quot;font-size: 29px;&quot;&gt;0&lt;/font&gt;" style="text;html=1;align=center;verticalAlign=middle;whiteSpace=wrap;rounded=0;" vertex="1" parent="hL8D24npAY1kQglWVBG0-318">
          <mxGeometry width="80" height="80" as="geometry" />
        </mxCell>
        <mxCell id="hL8D24npAY1kQglWVBG0-321" value="" style="endArrow=none;html=1;rounded=0;exitX=1;exitY=0.5;exitDx=0;exitDy=0;strokeWidth=2;" edge="1" parent="hL8D24npAY1kQglWVBG0-318" source="hL8D24npAY1kQglWVBG0-320">
          <mxGeometry width="50" height="50" relative="1" as="geometry">
            <mxPoint x="110" y="60" as="sourcePoint" />
            <mxPoint x="120" y="40" as="targetPoint" />
          </mxGeometry>
        </mxCell>
        <mxCell id="hL8D24npAY1kQglWVBG0-326" value="" style="endArrow=none;html=1;rounded=0;" edge="1" parent="1">
          <mxGeometry width="50" height="50" relative="1" as="geometry">
            <mxPoint x="-30" y="290" as="sourcePoint" />
            <mxPoint x="320" y="290" as="targetPoint" />
          </mxGeometry>
        </mxCell>
        <mxCell id="QvkCXpr15zVtPhJupILJ-1" value="" style="group" parent="1" vertex="1" connectable="0">
          <mxGeometry x="250" y="-40" width="80" height="80" as="geometry" />
        </mxCell>
        <mxCell id="QvkCXpr15zVtPhJupILJ-2" value="" style="whiteSpace=wrap;html=1;aspect=fixed;fillColor=none;" parent="QvkCXpr15zVtPhJupILJ-1" vertex="1">
          <mxGeometry width="80" height="80" as="geometry" />
        </mxCell>
        <mxCell id="QvkCXpr15zVtPhJupILJ-3" value="" style="whiteSpace=wrap;html=1;aspect=fixed;fillColor=none;" parent="QvkCXpr15zVtPhJupILJ-1" vertex="1">
          <mxGeometry x="10" y="10" width="60" height="60" as="geometry" />
        </mxCell>
        <mxCell id="QvkCXpr15zVtPhJupILJ-4" value="&lt;font style=&quot;font-size: 29px;&quot;&gt;0&lt;/font&gt;" style="text;html=1;align=center;verticalAlign=middle;whiteSpace=wrap;rounded=0;" parent="QvkCXpr15zVtPhJupILJ-1" vertex="1">
          <mxGeometry width="80" height="80" as="geometry" />
        </mxCell>
        <mxCell id="QvkCXpr15zVtPhJupILJ-5" value="" style="group" parent="1" vertex="1" connectable="0">
          <mxGeometry x="284" y="40" width="76" height="80" as="geometry" />
        </mxCell>
        <mxCell id="QvkCXpr15zVtPhJupILJ-6" value="" style="endArrow=none;html=1;rounded=0;strokeWidth=2;" parent="QvkCXpr15zVtPhJupILJ-5" edge="1">
          <mxGeometry width="50" height="50" relative="1" as="geometry">
            <mxPoint x="5.676615384615406" y="80" as="sourcePoint" />
            <mxPoint x="5.676615384615406" as="targetPoint" />
          </mxGeometry>
        </mxCell>
        <mxCell id="QvkCXpr15zVtPhJupILJ-7" value="" style="endArrow=none;html=1;rounded=0;strokeWidth=2;" parent="QvkCXpr15zVtPhJupILJ-5" edge="1">
          <mxGeometry width="50" height="50" relative="1" as="geometry">
            <mxPoint y="40" as="sourcePoint" />
            <mxPoint x="11.692307692307693" y="40" as="targetPoint" />
          </mxGeometry>
        </mxCell>
        <mxCell id="QvkCXpr15zVtPhJupILJ-8" value="&lt;font style=&quot;font-size: 18px;&quot;&gt;1&lt;/font&gt;" style="text;html=1;align=left;verticalAlign=middle;whiteSpace=wrap;rounded=0;" parent="QvkCXpr15zVtPhJupILJ-5" vertex="1">
          <mxGeometry x="11.692307692307693" y="20" width="64.3076923076923" height="40" as="geometry" />
        </mxCell>
        <mxCell id="QvkCXpr15zVtPhJupILJ-10" value="" style="whiteSpace=wrap;html=1;aspect=fixed;fillColor=none;" parent="1" vertex="1">
          <mxGeometry x="260" y="120" width="80" height="80" as="geometry" />
        </mxCell>
        <mxCell id="QvkCXpr15zVtPhJupILJ-11" value="&lt;font style=&quot;font-size: 29px;&quot;&gt;0&lt;/font&gt;" style="text;html=1;align=center;verticalAlign=middle;whiteSpace=wrap;rounded=0;" parent="1" vertex="1">
          <mxGeometry x="260" y="120" width="80" height="80" as="geometry" />
        </mxCell>
        <mxCell id="QvkCXpr15zVtPhJupILJ-12" value="" style="endArrow=none;html=1;rounded=0;exitX=1;exitY=0.5;exitDx=0;exitDy=0;strokeWidth=2;" parent="1" source="QvkCXpr15zVtPhJupILJ-11" edge="1">
          <mxGeometry width="50" height="50" relative="1" as="geometry">
            <mxPoint x="370" y="180" as="sourcePoint" />
            <mxPoint x="380" y="160" as="targetPoint" />
          </mxGeometry>
        </mxCell>
        <mxCell id="QvkCXpr15zVtPhJupILJ-13" value="" style="group" parent="1" vertex="1" connectable="0">
          <mxGeometry x="380" y="70" width="260" height="220" as="geometry" />
        </mxCell>
        <mxCell id="QvkCXpr15zVtPhJupILJ-14" value="&lt;span style=&quot;font-size: 18px; text-align: left;&quot;&gt;time_IRQ_acquisition = 0&lt;/span&gt;&lt;div&gt;&lt;div style=&quot;text-align: left;&quot;&gt;&lt;span style=&quot;font-size: 18px; text-align: center;&quot;&gt;flag_IRQ_pluie = 1&lt;/span&gt;&lt;span style=&quot;font-size: 18px;&quot;&gt;&lt;br&gt;&lt;/span&gt;&lt;/div&gt;&lt;div style=&quot;text-align: left;&quot;&gt;&lt;span style=&quot;font-size: 18px; text-align: center;&quot;&gt;flag_IRQ_vent = 1&lt;/span&gt;&lt;span style=&quot;font-size: 18px; text-align: center;&quot;&gt;&lt;br&gt;&lt;/span&gt;&lt;/div&gt;&lt;div&gt;&lt;span style=&quot;font-size: 15px;&quot;&gt;flag_update = 0&lt;/span&gt;&lt;span style=&quot;font-size: 18px; text-align: left;&quot;&gt;&lt;br&gt;&lt;/span&gt;&lt;/div&gt;&lt;div&gt;&lt;span style=&quot;font-size: 18px;&quot;&gt;flag_page_change = 1&lt;/span&gt;&lt;span style=&quot;font-size: 15px;&quot;&gt;&lt;br&gt;&lt;/span&gt;&lt;/div&gt;&lt;div&gt;&lt;font style=&quot;font-size: 15px;&quot;&gt;flag_vent_vref = 0&lt;/font&gt;&lt;div&gt;&lt;span style=&quot;font-size: 15px;&quot;&gt;flag_pluie_verf = 0&lt;/span&gt;&lt;/div&gt;&lt;/div&gt;&lt;div&gt;&lt;span style=&quot;font-size: 15px;&quot;&gt;page = 1&lt;/span&gt;&lt;/div&gt;&lt;/div&gt;" style="rounded=0;whiteSpace=wrap;html=1;fillColor=none;" parent="QvkCXpr15zVtPhJupILJ-13" vertex="1">
          <mxGeometry y="44" width="260" height="176" as="geometry" />
        </mxCell>
        <mxCell id="QvkCXpr15zVtPhJupILJ-15" value="" style="endArrow=block;html=1;rounded=0;exitX=0;exitY=1;exitDx=0;exitDy=0;endFill=1;strokeWidth=2;" parent="QvkCXpr15zVtPhJupILJ-13" source="QvkCXpr15zVtPhJupILJ-14" edge="1">
          <mxGeometry width="50" height="50" relative="1" as="geometry">
            <mxPoint x="-95" y="187" as="sourcePoint" />
            <mxPoint y="30" as="targetPoint" />
          </mxGeometry>
        </mxCell>
        <mxCell id="hL8D24npAY1kQglWVBG0-322" value="" style="group" vertex="1" connectable="0" parent="1">
          <mxGeometry x="280" y="200" width="130" height="80" as="geometry" />
        </mxCell>
        <mxCell id="hL8D24npAY1kQglWVBG0-323" value="" style="endArrow=none;html=1;rounded=0;strokeWidth=2;" edge="1" parent="hL8D24npAY1kQglWVBG0-322">
          <mxGeometry width="50" height="50" relative="1" as="geometry">
            <mxPoint x="9.710000000000036" y="80" as="sourcePoint" />
            <mxPoint x="9.710000000000036" as="targetPoint" />
          </mxGeometry>
        </mxCell>
        <mxCell id="hL8D24npAY1kQglWVBG0-324" value="" style="endArrow=none;html=1;rounded=0;strokeWidth=2;" edge="1" parent="hL8D24npAY1kQglWVBG0-322">
          <mxGeometry width="50" height="50" relative="1" as="geometry">
            <mxPoint y="40" as="sourcePoint" />
            <mxPoint x="20" y="40" as="targetPoint" />
          </mxGeometry>
        </mxCell>
        <mxCell id="hL8D24npAY1kQglWVBG0-325" value="&lt;font style=&quot;font-size: 18px;&quot;&gt;1&lt;/font&gt;" style="text;html=1;align=left;verticalAlign=middle;whiteSpace=wrap;rounded=0;" vertex="1" parent="hL8D24npAY1kQglWVBG0-322">
          <mxGeometry x="20" y="20" width="110" height="40" as="geometry" />
        </mxCell>
        <mxCell id="QvkCXpr15zVtPhJupILJ-83" value="init" style="text;html=1;align=center;verticalAlign=middle;whiteSpace=wrap;rounded=0;" parent="1" vertex="1">
          <mxGeometry x="610" y="150" width="60" height="30" as="geometry" />
        </mxCell>
        <mxCell id="hL8D24npAY1kQglWVBG0-327" value="" style="endArrow=none;html=1;rounded=0;exitX=0.5;exitY=0;exitDx=0;exitDy=0;" edge="1" parent="1" source="hL8D24npAY1kQglWVBG0-320">
          <mxGeometry width="50" height="50" relative="1" as="geometry">
            <mxPoint x="330" y="240" as="sourcePoint" />
            <mxPoint x="230" y="290" as="targetPoint" />
          </mxGeometry>
        </mxCell>
        <mxCell id="hL8D24npAY1kQglWVBG0-328" value="" style="endArrow=none;html=1;rounded=0;" edge="1" parent="1">
          <mxGeometry width="50" height="50" relative="1" as="geometry">
            <mxPoint x="140" y="520" as="sourcePoint" />
            <mxPoint x="2370" y="510" as="targetPoint" />
          </mxGeometry>
        </mxCell>
        <mxCell id="hL8D24npAY1kQglWVBG0-329" value="" style="endArrow=none;html=1;rounded=0;entryX=0.5;entryY=1;entryDx=0;entryDy=0;" edge="1" parent="1" target="hL8D24npAY1kQglWVBG0-319">
          <mxGeometry width="50" height="50" relative="1" as="geometry">
            <mxPoint x="230" y="520" as="sourcePoint" />
            <mxPoint x="290" y="370" as="targetPoint" />
          </mxGeometry>
        </mxCell>
      </root>
    </mxGraphModel>
  </diagram>
</mxfile>
